M48
; DRILL file {KiCad 9.0.7} date 2026-03-06T11:07:55+0100
; FORMAT={-:-/ absolute / metric / decimal}
; #@! TF.CreationDate,2026-03-06T11:07:55+01:00
; #@! TF.GenerationSoftware,Kicad,Pcbnew,9.0.7
; #@! TF.FileFunction,Plated,1,2,PTH
FMAT,2
METRIC
; #@! TA.AperFunction,Plated,PTH,ComponentDrill
T1C0.800
; #@! TA.AperFunction,Plated,PTH,ViaDrill
T2C1.000
; #@! TA.AperFunction,Plated,PTH,ComponentDrill
T3C1.000
%
G90
G05
T1
X106.5Y-73.42
X106.5Y-83.58
X113.92Y-102.0
X124.08Y-102.0
X126.5Y-88.5
X131.5Y-69.42
X131.5Y-79.58
X131.5Y-88.5
X140.5Y-82.92
X140.5Y-93.08
T2
X126.5Y-73.5
T3
X110.0Y-44.69
X110.0Y-47.23
X110.0Y-49.77
X110.0Y-52.31
X112.69Y-58.24
X112.69Y-65.76
X115.23Y-58.24
X115.23Y-65.76
X115.5Y-85.5
X117.77Y-58.24
X117.77Y-65.76
X118.796Y-49.2
X120.31Y-58.24
X120.31Y-65.76
X120.5Y-85.5
X121.336Y-49.2
X123.876Y-49.2
X126.416Y-49.2
X127.94Y-97.46
X128.24Y-102.0
X128.956Y-49.2
X130.48Y-97.46
X131.496Y-49.2
X132.19Y-56.24
X132.19Y-63.76
X133.02Y-97.46
X134.036Y-49.2
X134.73Y-56.24
X134.73Y-63.76
X135.56Y-97.46
X135.76Y-102.0
X136.576Y-49.2
X136.96Y-77.0
X137.27Y-56.24
X137.27Y-63.76
X138.1Y-97.46
X139.116Y-49.2
X139.5Y-77.0
X139.81Y-56.24
X139.81Y-63.76
X140.64Y-97.46
X141.656Y-49.2
X142.04Y-77.0
X143.18Y-97.46
X144.58Y-77.0
X145.72Y-49.2
X145.72Y-97.46
X148.26Y-49.2
X150.8Y-49.2
X150.8Y-97.46
X153.34Y-49.2
X153.34Y-97.46
X155.88Y-49.2
X155.88Y-97.46
X158.0Y-54.5
X158.0Y-57.04
X158.0Y-59.58
X158.0Y-62.12
X158.0Y-64.66
X158.42Y-49.2
X158.42Y-97.46
X158.5Y-87.0
X158.5Y-92.0
X160.96Y-49.2
X160.96Y-97.46
X163.5Y-49.2
X163.5Y-97.46
M30
