%TF.GenerationSoftware,KiCad,Pcbnew,9.0.7*%
%TF.CreationDate,2026-03-06T11:08:02+01:00*%
%TF.ProjectId,Projet_capteur_pcb,50726f6a-6574-45f6-9361-70746575725f,rev?*%
%TF.SameCoordinates,Original*%
%TF.FileFunction,Copper,L2,Bot*%
%TF.FilePolarity,Positive*%
%FSLAX46Y46*%
G04 Gerber Fmt 4.6, Leading zero omitted, Abs format (unit mm)*
G04 Created by KiCad (PCBNEW 9.0.7) date 2026-03-06 11:08:02*
%MOMM*%
%LPD*%
G01*
G04 APERTURE LIST*
%TA.AperFunction,ComponentPad*%
%ADD10R,1.700000X1.700000*%
%TD*%
%TA.AperFunction,ComponentPad*%
%ADD11C,1.700000*%
%TD*%
%TA.AperFunction,ComponentPad*%
%ADD12C,1.600000*%
%TD*%
%TA.AperFunction,ComponentPad*%
%ADD13R,2.000000X2.540000*%
%TD*%
%TA.AperFunction,ComponentPad*%
%ADD14O,2.000000X2.540000*%
%TD*%
%TA.AperFunction,ComponentPad*%
%ADD15R,2.000000X2.000000*%
%TD*%
%TA.AperFunction,ComponentPad*%
%ADD16C,2.000000*%
%TD*%
%TA.AperFunction,ComponentPad*%
%ADD17R,2.540000X2.000000*%
%TD*%
%TA.AperFunction,ComponentPad*%
%ADD18O,2.540000X2.000000*%
%TD*%
%TA.AperFunction,ViaPad*%
%ADD19C,1.400000*%
%TD*%
%TA.AperFunction,Conductor*%
%ADD20C,0.500000*%
%TD*%
G04 APERTURE END LIST*
D10*
%TO.P,J1,1,Pin_1*%
%TO.N,unconnected-(J1-Pin_1-Pad1)*%
X127940000Y-97460000D03*
D11*
%TO.P,J1,2,Pin_2*%
%TO.N,/IOREF*%
X130480000Y-97460000D03*
%TO.P,J1,3,Pin_3*%
%TO.N,/~{RESET}*%
X133020000Y-97460000D03*
%TO.P,J1,4,Pin_4*%
%TO.N,+3V3*%
X135560000Y-97460000D03*
%TO.P,J1,5,Pin_5*%
%TO.N,+5V*%
X138100000Y-97460000D03*
%TO.P,J1,6,Pin_6*%
%TO.N,GND*%
X140640000Y-97460000D03*
%TO.P,J1,7,Pin_7*%
X143180000Y-97460000D03*
%TO.P,J1,8,Pin_8*%
%TO.N,VCC*%
X145720000Y-97460000D03*
%TD*%
D10*
%TO.P,J3,1,Pin_1*%
%TO.N,ampli_out*%
X150800000Y-97460000D03*
D11*
%TO.P,J3,2,Pin_2*%
%TO.N,flex_out*%
X153340000Y-97460000D03*
%TO.P,J3,3,Pin_3*%
%TO.N,/A2*%
X155880000Y-97460000D03*
%TO.P,J3,4,Pin_4*%
%TO.N,/A3*%
X158420000Y-97460000D03*
%TO.P,J3,5,Pin_5*%
%TO.N,SDA*%
X160960000Y-97460000D03*
%TO.P,J3,6,Pin_6*%
%TO.N,SCL*%
X163500000Y-97460000D03*
%TD*%
D10*
%TO.P,J2,1,Pin_1*%
%TO.N,SCL*%
X118796000Y-49200000D03*
D11*
%TO.P,J2,2,Pin_2*%
%TO.N,SDA*%
X121336000Y-49200000D03*
%TO.P,J2,3,Pin_3*%
%TO.N,/AREF*%
X123876000Y-49200000D03*
%TO.P,J2,4,Pin_4*%
%TO.N,GND*%
X126416000Y-49200000D03*
%TO.P,J2,5,Pin_5*%
%TO.N,SCK*%
X128956000Y-49200000D03*
%TO.P,J2,6,Pin_6*%
%TO.N,/12*%
X131496000Y-49200000D03*
%TO.P,J2,7,Pin_7*%
%TO.N,MOSI*%
X134036000Y-49200000D03*
%TO.P,J2,8,Pin_8*%
%TO.N,/\u002A10*%
X136576000Y-49200000D03*
%TO.P,J2,9,Pin_9*%
%TO.N,/\u002A9*%
X139116000Y-49200000D03*
%TO.P,J2,10,Pin_10*%
%TO.N,CS*%
X141656000Y-49200000D03*
%TD*%
D10*
%TO.P,J4,1,Pin_1*%
%TO.N,/7*%
X145720000Y-49200000D03*
D11*
%TO.P,J4,2,Pin_2*%
%TO.N,/\u002A6*%
X148260000Y-49200000D03*
%TO.P,J4,3,Pin_3*%
%TO.N,SW*%
X150800000Y-49200000D03*
%TO.P,J4,4,Pin_4*%
%TO.N,DT*%
X153340000Y-49200000D03*
%TO.P,J4,5,Pin_5*%
%TO.N,/\u002A3*%
X155880000Y-49200000D03*
%TO.P,J4,6,Pin_6*%
%TO.N,CLK*%
X158420000Y-49200000D03*
%TO.P,J4,7,Pin_7*%
%TO.N,TxD*%
X160960000Y-49200000D03*
%TO.P,J4,8,Pin_8*%
%TO.N,Rxd*%
X163500000Y-49200000D03*
%TD*%
D12*
%TO.P,C4,1*%
%TO.N,potor_out*%
X126500000Y-88500000D03*
%TO.P,C4,2*%
%TO.N,Net-(AOP1-OUT)*%
X131500000Y-88500000D03*
%TD*%
D13*
%TO.P,Bluetooth,1,Vcc*%
%TO.N,+5V*%
X136960000Y-77000000D03*
D14*
%TO.P,Bluetooth,2,GND*%
%TO.N,GND*%
X139500000Y-77000000D03*
%TO.P,Bluetooth,3,TxD*%
%TO.N,TxD*%
X142040000Y-77000000D03*
%TO.P,Bluetooth,4,RxD*%
%TO.N,Rxd*%
X144580000Y-77000000D03*
%TD*%
D15*
%TO.P,Encodeur1,1,CLK*%
%TO.N,CLK*%
X158000000Y-54500000D03*
D16*
%TO.P,Encodeur1,2,DT*%
%TO.N,DT*%
X158000000Y-57040000D03*
%TO.P,Encodeur1,3,SW*%
%TO.N,SW*%
X158000000Y-59580000D03*
%TO.P,Encodeur1,4,VCC*%
%TO.N,+5V*%
X158000000Y-62120000D03*
%TO.P,Encodeur1,5,GND*%
%TO.N,GND*%
X158000000Y-64660000D03*
%TD*%
%TO.P,C1,1*%
%TO.N,Net-(AOP1-+IN)*%
X115500000Y-85500000D03*
%TO.P,C1,2*%
%TO.N,GND*%
X120500000Y-85500000D03*
%TD*%
D13*
%TO.P,potD1,1,CS*%
%TO.N,CS*%
X139810000Y-56240000D03*
D14*
%TO.P,potD1,2,SCK*%
%TO.N,SCK*%
X137270000Y-56240000D03*
%TO.P,potD1,3,SI*%
%TO.N,MOSI*%
X134730000Y-56240000D03*
%TO.P,potD1,4,Vss*%
%TO.N,GND*%
X132190000Y-56240000D03*
%TO.P,potD1,5,VDD*%
%TO.N,+5V*%
X132190000Y-63760000D03*
%TO.P,potD1,6,PBO*%
%TO.N,GND*%
X134730000Y-63760000D03*
%TO.P,potD1,7,PW0*%
X137270000Y-63760000D03*
%TO.P,potD1,8,PA0*%
%TO.N,potor_out*%
X139810000Y-63760000D03*
%TD*%
D13*
%TO.P,AOP1,1,NC*%
%TO.N,unconnected-(AOP1-NC-Pad1)*%
X112690000Y-65760000D03*
D14*
%TO.P,AOP1,2,-IN*%
%TO.N,potor_out*%
X115230000Y-65760000D03*
%TO.P,AOP1,3,+IN*%
%TO.N,Net-(AOP1-+IN)*%
X117770000Y-65760000D03*
%TO.P,AOP1,4,V-*%
%TO.N,GND*%
X120310000Y-65760000D03*
%TO.P,AOP1,5,EXT_CLOCK*%
%TO.N,unconnected-(AOP1-EXT_CLOCK-Pad5)*%
X120310000Y-58240000D03*
%TO.P,AOP1,6,OUT*%
%TO.N,Net-(AOP1-OUT)*%
X117770000Y-58240000D03*
%TO.P,AOP1,7,V+*%
%TO.N,+5V*%
X115230000Y-58240000D03*
%TO.P,AOP1,8,NC*%
%TO.N,unconnected-(AOP1-NC-Pad8)*%
X112690000Y-58240000D03*
%TD*%
D17*
%TO.P,EcranOled1,1,Vcc*%
%TO.N,+5V*%
X110000000Y-52310000D03*
D18*
%TO.P,EcranOled1,2,GND*%
%TO.N,GND*%
X110000000Y-49770000D03*
%TO.P,EcranOled1,3,SCL*%
%TO.N,SCL*%
X110000000Y-47230000D03*
%TO.P,EcranOled1,4,SDA*%
%TO.N,SDA*%
X110000000Y-44690000D03*
%TD*%
D12*
%TO.P,R5,1*%
%TO.N,Net-(capteur1-OUT)*%
X124080000Y-102000000D03*
%TO.P,R5,2*%
%TO.N,Net-(AOP1-+IN)*%
X113920000Y-102000000D03*
%TD*%
D18*
%TO.P,capteur,1,IN*%
%TO.N,+5V*%
X135760000Y-102000000D03*
%TO.P,capteur,2,OUT*%
%TO.N,Net-(capteur1-OUT)*%
X128240000Y-102000000D03*
%TD*%
D16*
%TO.P,C2,1*%
%TO.N,ampli_out*%
X158500000Y-87000000D03*
%TO.P,C2,2*%
%TO.N,GND*%
X158500000Y-92000000D03*
%TD*%
D12*
%TO.P,R1,1*%
%TO.N,Net-(AOP1-+IN)*%
X106500000Y-83580000D03*
%TO.P,R1,2*%
%TO.N,GND*%
X106500000Y-73420000D03*
%TD*%
%TO.P,R3,1*%
%TO.N,Net-(AOP1-OUT)*%
X131500000Y-79580000D03*
%TO.P,R3,2*%
%TO.N,potor_out*%
X131500000Y-69420000D03*
%TD*%
%TO.P,R4,1*%
%TO.N,Net-(AOP1-OUT)*%
X140500000Y-93080000D03*
%TO.P,R4,2*%
%TO.N,ampli_out*%
X140500000Y-82920000D03*
%TD*%
D19*
%TO.N,potor_out*%
X126500000Y-73500000D03*
%TD*%
D20*
%TO.N,MOSI*%
X134730000Y-56730000D02*
X136500000Y-58500000D01*
X134730000Y-56240000D02*
X134730000Y-56730000D01*
X136500000Y-58500000D02*
X143000000Y-58500000D01*
X143000000Y-58500000D02*
X143500000Y-59000000D01*
%TO.N,SCK*%
X137270000Y-56240000D02*
X137270000Y-52770000D01*
X135301000Y-50801000D02*
X130557000Y-50801000D01*
X137270000Y-52770000D02*
X135301000Y-50801000D01*
X130557000Y-50801000D02*
X128956000Y-49200000D01*
%TO.N,GND*%
X134730000Y-63553712D02*
X134730000Y-63760000D01*
X120310000Y-85310000D02*
X120500000Y-85500000D01*
%TO.N,Rxd*%
X150967544Y-77000000D02*
X144580000Y-77000000D01*
X163500000Y-64467544D02*
X150967544Y-77000000D01*
X163500000Y-49200000D02*
X163500000Y-64467544D01*
%TO.N,TxD*%
X151995630Y-74556286D02*
X144277426Y-74556286D01*
X160960000Y-49200000D02*
X160500000Y-49660000D01*
X142040000Y-76793712D02*
X142040000Y-77000000D01*
X161001000Y-50365372D02*
X161001000Y-52914628D01*
X161001000Y-52914628D02*
X160500000Y-53415628D01*
X160752000Y-63456372D02*
X160752000Y-65799916D01*
X160500000Y-49660000D02*
X160500000Y-49864372D01*
X160500000Y-53415628D02*
X160500000Y-63204372D01*
X160752000Y-65799916D02*
X151995630Y-74556286D01*
X160500000Y-63204372D02*
X160752000Y-63456372D01*
X144277426Y-74556286D02*
X142040000Y-76793712D01*
X160500000Y-49864372D02*
X161001000Y-50365372D01*
%TO.N,Net-(AOP1-+IN)*%
X117770000Y-74810000D02*
X117770000Y-65760000D01*
X113920000Y-102000000D02*
X116000000Y-102000000D01*
X117500000Y-100500000D02*
X117500000Y-92000000D01*
X117500000Y-92000000D02*
X112500000Y-87000000D01*
X109000000Y-83580000D02*
X117770000Y-74810000D01*
X112500000Y-87000000D02*
X112500000Y-86500000D01*
X112500000Y-86500000D02*
X112500000Y-85000000D01*
X115500000Y-85500000D02*
X114500000Y-86500000D01*
X111080000Y-83580000D02*
X109000000Y-83580000D01*
X116000000Y-102000000D02*
X117500000Y-100500000D01*
X112500000Y-85000000D02*
X111080000Y-83580000D01*
X114500000Y-86500000D02*
X112500000Y-86500000D01*
X109000000Y-83580000D02*
X106500000Y-83580000D01*
%TO.N,SCL*%
X110000000Y-47230000D02*
X110770000Y-47230000D01*
X118500000Y-46500000D02*
X118796000Y-46796000D01*
X110770000Y-47230000D02*
X111500000Y-46500000D01*
X111500000Y-46500000D02*
X118500000Y-46500000D01*
X118796000Y-46796000D02*
X118796000Y-49200000D01*
%TO.N,SDA*%
X118105628Y-44690000D02*
X110000000Y-44690000D01*
X121336000Y-47920372D02*
X118105628Y-44690000D01*
X121336000Y-49200000D02*
X121336000Y-47920372D01*
%TO.N,CLK*%
X160000000Y-52500000D02*
X160000000Y-50780000D01*
X158000000Y-54500000D02*
X160000000Y-52500000D01*
X160000000Y-50780000D02*
X158420000Y-49200000D01*
%TO.N,SW*%
X154100000Y-52500000D02*
X150800000Y-49200000D01*
X158000000Y-59580000D02*
X155000000Y-56580000D01*
X155000000Y-52500000D02*
X154100000Y-52500000D01*
X155000000Y-56580000D02*
X155000000Y-52500000D01*
%TO.N,DT*%
X158000000Y-57040000D02*
X157038000Y-57040000D01*
X157038000Y-57040000D02*
X156000000Y-56002000D01*
X156000000Y-51860000D02*
X153340000Y-49200000D01*
X156000000Y-56002000D02*
X156000000Y-51860000D01*
%TO.N,Net-(AOP1-OUT)*%
X131500000Y-88500000D02*
X133000000Y-88500000D01*
X131500000Y-72240000D02*
X131500000Y-79580000D01*
X117770000Y-58240000D02*
X117740000Y-58240000D01*
X117770000Y-58240000D02*
X117770000Y-58510000D01*
X131500000Y-79580000D02*
X131500000Y-88500000D01*
X133000000Y-88500000D02*
X137580000Y-93080000D01*
X117770000Y-58510000D02*
X131500000Y-72240000D01*
X137580000Y-93080000D02*
X140500000Y-93080000D01*
%TO.N,MOSI*%
X143500000Y-47000000D02*
X134000000Y-47000000D01*
X143500000Y-59000000D02*
X143500000Y-47000000D01*
X134000000Y-49164000D02*
X134036000Y-49200000D01*
X134000000Y-47000000D02*
X134000000Y-49164000D01*
X134730000Y-56240000D02*
X134730000Y-56033712D01*
%TO.N,CS*%
X139810000Y-51046000D02*
X141656000Y-49200000D01*
X140260000Y-55690000D02*
X139030000Y-55690000D01*
X139539000Y-56460000D02*
X139999000Y-56000000D01*
X139810000Y-56240000D02*
X139810000Y-51046000D01*
%TO.N,ampli_out*%
X158500000Y-87000000D02*
X150800000Y-94700000D01*
X140500000Y-82920000D02*
X154420000Y-82920000D01*
X154420000Y-82920000D02*
X158500000Y-87000000D01*
X150800000Y-94700000D02*
X150800000Y-97460000D01*
%TO.N,potor_out*%
X115230000Y-65490000D02*
X116981000Y-63739000D01*
X116981000Y-63739000D02*
X121035288Y-63739000D01*
X138580000Y-69420000D02*
X139810000Y-68190000D01*
X126500000Y-73500000D02*
X126500000Y-69203712D01*
X131500000Y-69420000D02*
X138580000Y-69420000D01*
X139810000Y-68190000D02*
X139810000Y-63760000D01*
X115230000Y-65760000D02*
X115230000Y-65553712D01*
X126500000Y-88500000D02*
X126500000Y-73500000D01*
X131500000Y-69420000D02*
X131500000Y-69500000D01*
X126500000Y-69203712D02*
X121035288Y-63739000D01*
X115230000Y-65760000D02*
X115230000Y-65490000D01*
%TO.N,Net-(capteur1-OUT)*%
X127740000Y-102000000D02*
X128240000Y-102500000D01*
X128240000Y-102000000D02*
X124080000Y-102000000D01*
%TO.N,+5V*%
X115500000Y-57970000D02*
X115500000Y-56221000D01*
X109240000Y-64500000D02*
X109240000Y-78646554D01*
X115502000Y-56219000D02*
X124649000Y-56219000D01*
X136960000Y-77000000D02*
X136960000Y-72540000D01*
X115500000Y-56221000D02*
X115502000Y-56219000D01*
X135760000Y-102000000D02*
X135760000Y-103791000D01*
X159751000Y-63871000D02*
X158000000Y-62120000D01*
X135760000Y-103791000D02*
X135000000Y-104551000D01*
X155880000Y-60000000D02*
X158000000Y-62120000D01*
X110000000Y-52310000D02*
X111589000Y-52310000D01*
X104949000Y-82937554D02*
X104949000Y-96222446D01*
X109240000Y-78646554D02*
X104949000Y-82937554D01*
X113277554Y-104551000D02*
X135000000Y-104551000D01*
X142718000Y-66782000D02*
X158354288Y-66782000D01*
X111589000Y-52310000D02*
X115500000Y-56221000D01*
X115230000Y-58240000D02*
X115500000Y-57970000D01*
X131965000Y-62035000D02*
X134000000Y-60000000D01*
X158354288Y-66782000D02*
X159751000Y-65385288D01*
X134000000Y-60000000D02*
X155880000Y-60000000D01*
X135760000Y-99800000D02*
X135760000Y-102000000D01*
X115230000Y-58510000D02*
X109240000Y-64500000D01*
X132190000Y-63760000D02*
X131965000Y-63535000D01*
X115230000Y-58240000D02*
X115230000Y-58510000D01*
X104949000Y-96222446D02*
X113277554Y-104551000D01*
X136960000Y-72540000D02*
X142718000Y-66782000D01*
X138100000Y-97460000D02*
X135760000Y-99800000D01*
X159751000Y-65385288D02*
X159751000Y-63871000D01*
X124649000Y-56219000D02*
X132190000Y-63760000D01*
X132190000Y-63966288D02*
X132190000Y-63760000D01*
X131965000Y-63535000D02*
X131965000Y-62035000D01*
%TD*%
%TA.AperFunction,Conductor*%
%TO.N,GND*%
G36*
X157706412Y-67560185D02*
G01*
X157752167Y-67612989D01*
X157762111Y-67682147D01*
X157733086Y-67745703D01*
X157727054Y-67752181D01*
X151717768Y-73761467D01*
X151656445Y-73794952D01*
X151630087Y-73797786D01*
X144202716Y-73797786D01*
X144129450Y-73812360D01*
X144056186Y-73826932D01*
X144056182Y-73826934D01*
X144056180Y-73826934D01*
X144056179Y-73826935D01*
X143999002Y-73850618D01*
X143999000Y-73850619D01*
X143918140Y-73884112D01*
X143907987Y-73890897D01*
X143907986Y-73890896D01*
X143907982Y-73890900D01*
X143793914Y-73967117D01*
X143793906Y-73967123D01*
X142529351Y-75231678D01*
X142468028Y-75265163D01*
X142403359Y-75261930D01*
X142393245Y-75258644D01*
X142158727Y-75221500D01*
X142158722Y-75221500D01*
X141921278Y-75221500D01*
X141921273Y-75221500D01*
X141686758Y-75258643D01*
X141460932Y-75332019D01*
X141249372Y-75439815D01*
X141057275Y-75579382D01*
X140889382Y-75747275D01*
X140749815Y-75939372D01*
X140642017Y-76150936D01*
X140622050Y-76212388D01*
X140591801Y-76261749D01*
X139982962Y-76870588D01*
X139965925Y-76807007D01*
X139900099Y-76692993D01*
X139807007Y-76599901D01*
X139692993Y-76534075D01*
X139629410Y-76517037D01*
X140518884Y-75627564D01*
X140477186Y-75585866D01*
X140286171Y-75447085D01*
X140075802Y-75339897D01*
X139851247Y-75266934D01*
X139851248Y-75266934D01*
X139618052Y-75230000D01*
X139381948Y-75230000D01*
X139148752Y-75266934D01*
X138924197Y-75339897D01*
X138713829Y-75447084D01*
X138596699Y-75532184D01*
X138530892Y-75555663D01*
X138462838Y-75539837D01*
X138414980Y-75491289D01*
X138410888Y-75483795D01*
X138323261Y-75366739D01*
X138206204Y-75279111D01*
X138173557Y-75266934D01*
X138069203Y-75228011D01*
X138008654Y-75221500D01*
X138008638Y-75221500D01*
X137842500Y-75221500D01*
X137775461Y-75201815D01*
X137729706Y-75149011D01*
X137718500Y-75097500D01*
X137718500Y-72905543D01*
X137738185Y-72838504D01*
X137754819Y-72817862D01*
X142995862Y-67576819D01*
X143057185Y-67543334D01*
X143083543Y-67540500D01*
X157639373Y-67540500D01*
X157706412Y-67560185D01*
G37*
%TD.AperFunction*%
%TA.AperFunction,Conductor*%
G36*
X124350496Y-56997185D02*
G01*
X124371138Y-57013819D01*
X130645181Y-63287862D01*
X130678666Y-63349185D01*
X130681500Y-63375543D01*
X130681500Y-64148727D01*
X130718643Y-64383241D01*
X130792019Y-64609067D01*
X130878122Y-64778052D01*
X130899815Y-64820627D01*
X131039380Y-65012722D01*
X131207278Y-65180620D01*
X131399373Y-65320185D01*
X131437611Y-65339668D01*
X131610932Y-65427980D01*
X131610934Y-65427980D01*
X131610937Y-65427982D01*
X131687913Y-65452993D01*
X131836758Y-65501356D01*
X132071273Y-65538500D01*
X132071278Y-65538500D01*
X132308727Y-65538500D01*
X132543241Y-65501356D01*
X132568758Y-65493065D01*
X132769063Y-65427982D01*
X132980627Y-65320185D01*
X133172722Y-65180620D01*
X133340620Y-65012722D01*
X133480185Y-64820627D01*
X133587982Y-64609063D01*
X133607949Y-64547609D01*
X133638197Y-64498249D01*
X134247037Y-63889408D01*
X134264075Y-63952993D01*
X134329901Y-64067007D01*
X134422993Y-64160099D01*
X134537007Y-64225925D01*
X134600589Y-64242962D01*
X133711116Y-65132436D01*
X133752813Y-65174133D01*
X133943828Y-65312914D01*
X134154197Y-65420102D01*
X134378752Y-65493065D01*
X134378751Y-65493065D01*
X134611948Y-65530000D01*
X134848052Y-65530000D01*
X135081247Y-65493065D01*
X135305802Y-65420102D01*
X135516168Y-65312916D01*
X135543244Y-65293243D01*
X135543682Y-65287677D01*
X135517420Y-65239582D01*
X135522404Y-65169890D01*
X135550905Y-65125543D01*
X135646448Y-65030000D01*
X134859410Y-64242962D01*
X134922993Y-64225925D01*
X135037007Y-64160099D01*
X135130099Y-64067007D01*
X135195925Y-63952993D01*
X135212962Y-63889410D01*
X136000000Y-64676448D01*
X136787037Y-63889410D01*
X136804075Y-63952993D01*
X136869901Y-64067007D01*
X136962993Y-64160099D01*
X137077007Y-64225925D01*
X137140589Y-64242962D01*
X136353552Y-65030000D01*
X136449094Y-65125542D01*
X136482579Y-65186865D01*
X136477595Y-65256557D01*
X136456456Y-65289447D01*
X136456755Y-65293244D01*
X136483828Y-65312914D01*
X136694197Y-65420102D01*
X136918752Y-65493065D01*
X136918751Y-65493065D01*
X137151948Y-65530000D01*
X137388052Y-65530000D01*
X137621247Y-65493065D01*
X137845802Y-65420102D01*
X138056171Y-65312914D01*
X138247186Y-65174133D01*
X138288884Y-65132436D01*
X137399410Y-64242962D01*
X137462993Y-64225925D01*
X137577007Y-64160099D01*
X137670099Y-64067007D01*
X137735925Y-63952993D01*
X137752962Y-63889410D01*
X138361801Y-64498249D01*
X138392051Y-64547611D01*
X138412019Y-64609067D01*
X138498122Y-64778052D01*
X138519815Y-64820627D01*
X138659380Y-65012722D01*
X138827278Y-65180620D01*
X139000385Y-65306389D01*
X139043051Y-65361719D01*
X139051500Y-65406707D01*
X139051500Y-67824457D01*
X139031815Y-67891496D01*
X139015181Y-67912138D01*
X138302138Y-68625181D01*
X138240815Y-68658666D01*
X138214457Y-68661500D01*
X132629493Y-68661500D01*
X132562454Y-68641815D01*
X132529175Y-68610385D01*
X132498070Y-68567573D01*
X132498068Y-68567570D01*
X132352430Y-68421932D01*
X132352428Y-68421930D01*
X132352423Y-68421926D01*
X132185806Y-68300873D01*
X132185805Y-68300872D01*
X132185803Y-68300871D01*
X132128496Y-68271671D01*
X132002294Y-68207367D01*
X131806408Y-68143719D01*
X131630794Y-68115905D01*
X131602981Y-68111500D01*
X131397019Y-68111500D01*
X131372550Y-68115375D01*
X131193591Y-68143719D01*
X130997705Y-68207367D01*
X130814193Y-68300873D01*
X130647576Y-68421926D01*
X130647571Y-68421930D01*
X130501930Y-68567571D01*
X130501926Y-68567576D01*
X130380873Y-68734193D01*
X130287367Y-68917705D01*
X130223719Y-69113591D01*
X130197865Y-69276830D01*
X130191500Y-69317019D01*
X130191500Y-69522981D01*
X130195002Y-69545089D01*
X130186046Y-69614382D01*
X130141049Y-69667833D01*
X130074297Y-69688472D01*
X130006983Y-69669746D01*
X129984847Y-69652166D01*
X120533867Y-60201186D01*
X120500382Y-60139863D01*
X120505366Y-60070171D01*
X120547238Y-60014238D01*
X120602150Y-59991032D01*
X120611380Y-59989569D01*
X120663241Y-59981356D01*
X120889063Y-59907982D01*
X121100627Y-59800185D01*
X121292722Y-59660620D01*
X121460620Y-59492722D01*
X121600185Y-59300627D01*
X121707982Y-59089063D01*
X121781356Y-58863241D01*
X121818500Y-58628727D01*
X121818500Y-57851272D01*
X121781356Y-57616758D01*
X121741054Y-57492722D01*
X121707982Y-57390937D01*
X121707980Y-57390934D01*
X121707980Y-57390932D01*
X121642891Y-57263189D01*
X121600185Y-57179373D01*
X121596560Y-57174383D01*
X121573082Y-57108576D01*
X121588909Y-57040523D01*
X121639016Y-56991829D01*
X121696880Y-56977500D01*
X124283457Y-56977500D01*
X124350496Y-56997185D01*
G37*
%TD.AperFunction*%
%TA.AperFunction,Conductor*%
G36*
X155581496Y-60778185D02*
G01*
X155602138Y-60794819D01*
X156490180Y-61682861D01*
X156523665Y-61744184D01*
X156524972Y-61789940D01*
X156491500Y-62001272D01*
X156491500Y-62238727D01*
X156528643Y-62473241D01*
X156602019Y-62699067D01*
X156693654Y-62878910D01*
X156709815Y-62910627D01*
X156849380Y-63102722D01*
X157017278Y-63270620D01*
X157080979Y-63316901D01*
X157123644Y-63372231D01*
X157131711Y-63426946D01*
X157130893Y-63437340D01*
X157870590Y-64177037D01*
X157807007Y-64194075D01*
X157692993Y-64259901D01*
X157599901Y-64352993D01*
X157534075Y-64467007D01*
X157517037Y-64530591D01*
X156777340Y-63790894D01*
X156717084Y-63873830D01*
X156609897Y-64084197D01*
X156536934Y-64308752D01*
X156500000Y-64541947D01*
X156500000Y-64778052D01*
X156536934Y-65011247D01*
X156609897Y-65235802D01*
X156717087Y-65446174D01*
X156777338Y-65529104D01*
X156777340Y-65529105D01*
X157517037Y-64789408D01*
X157534075Y-64852993D01*
X157599901Y-64967007D01*
X157692993Y-65060099D01*
X157807007Y-65125925D01*
X157870589Y-65142962D01*
X157130894Y-65882657D01*
X157131454Y-65889771D01*
X157117090Y-65958148D01*
X157068039Y-66007905D01*
X157007836Y-66023500D01*
X142643292Y-66023500D01*
X142496759Y-66052647D01*
X142496749Y-66052650D01*
X142358719Y-66109823D01*
X142234482Y-66192835D01*
X142234481Y-66192836D01*
X140780181Y-67647137D01*
X140718858Y-67680622D01*
X140649166Y-67675638D01*
X140593233Y-67633766D01*
X140568816Y-67568302D01*
X140568500Y-67559456D01*
X140568500Y-65406707D01*
X140588185Y-65339668D01*
X140619613Y-65306390D01*
X140792722Y-65180620D01*
X140960620Y-65012722D01*
X141100185Y-64820627D01*
X141207982Y-64609063D01*
X141277359Y-64395542D01*
X141281355Y-64383245D01*
X141281355Y-64383244D01*
X141281356Y-64383241D01*
X141303442Y-64243795D01*
X141318500Y-64148727D01*
X141318500Y-63371272D01*
X141281356Y-63136758D01*
X141235320Y-62995074D01*
X141207982Y-62910937D01*
X141207980Y-62910934D01*
X141207980Y-62910932D01*
X141100184Y-62699372D01*
X140960620Y-62507278D01*
X140792722Y-62339380D01*
X140600627Y-62199815D01*
X140389067Y-62092019D01*
X140163241Y-62018643D01*
X139928727Y-61981500D01*
X139928722Y-61981500D01*
X139691278Y-61981500D01*
X139691273Y-61981500D01*
X139456758Y-62018643D01*
X139230932Y-62092019D01*
X139019372Y-62199815D01*
X138827275Y-62339382D01*
X138659382Y-62507275D01*
X138519815Y-62699372D01*
X138412017Y-62910936D01*
X138392050Y-62972388D01*
X138361801Y-63021749D01*
X137752962Y-63630588D01*
X137735925Y-63567007D01*
X137670099Y-63452993D01*
X137577007Y-63359901D01*
X137462993Y-63294075D01*
X137399410Y-63277037D01*
X138288884Y-62387564D01*
X138247186Y-62345866D01*
X138056171Y-62207085D01*
X137845802Y-62099897D01*
X137621247Y-62026934D01*
X137621248Y-62026934D01*
X137388052Y-61990000D01*
X137151948Y-61990000D01*
X136918752Y-62026934D01*
X136694197Y-62099897D01*
X136483830Y-62207084D01*
X136456755Y-62226755D01*
X136456317Y-62232321D01*
X136482580Y-62280418D01*
X136477596Y-62350110D01*
X136449095Y-62394457D01*
X136353552Y-62490000D01*
X137140589Y-63277037D01*
X137077007Y-63294075D01*
X136962993Y-63359901D01*
X136869901Y-63452993D01*
X136804075Y-63567007D01*
X136787037Y-63630589D01*
X136000000Y-62843552D01*
X135212962Y-63630589D01*
X135195925Y-63567007D01*
X135130099Y-63452993D01*
X135037007Y-63359901D01*
X134922993Y-63294075D01*
X134859410Y-63277037D01*
X135646448Y-62490000D01*
X135550904Y-62394456D01*
X135517419Y-62333133D01*
X135522403Y-62263441D01*
X135543542Y-62230548D01*
X135543243Y-62226754D01*
X135516176Y-62207089D01*
X135516163Y-62207081D01*
X135305802Y-62099897D01*
X135081247Y-62026934D01*
X135081248Y-62026934D01*
X134848052Y-61990000D01*
X134611948Y-61990000D01*
X134378752Y-62026934D01*
X134154197Y-62099897D01*
X133943828Y-62207085D01*
X133752813Y-62345866D01*
X133711116Y-62387564D01*
X134600589Y-63277037D01*
X134537007Y-63294075D01*
X134422993Y-63359901D01*
X134329901Y-63452993D01*
X134264075Y-63567007D01*
X134247037Y-63630589D01*
X133638198Y-63021750D01*
X133607948Y-62972386D01*
X133587984Y-62910942D01*
X133587982Y-62910936D01*
X133480184Y-62699372D01*
X133340620Y-62507278D01*
X133172722Y-62339380D01*
X133035669Y-62239805D01*
X132993003Y-62184475D01*
X132987024Y-62114862D01*
X133019630Y-62053067D01*
X133020798Y-62051881D01*
X134277862Y-60794819D01*
X134339185Y-60761334D01*
X134365543Y-60758500D01*
X155514457Y-60758500D01*
X155581496Y-60778185D01*
G37*
%TD.AperFunction*%
%TA.AperFunction,Conductor*%
G36*
X117980539Y-47278185D02*
G01*
X118026294Y-47330989D01*
X118037500Y-47382500D01*
X118037500Y-47717500D01*
X118017815Y-47784539D01*
X117965011Y-47830294D01*
X117913500Y-47841500D01*
X117897345Y-47841500D01*
X117836797Y-47848011D01*
X117836795Y-47848011D01*
X117699795Y-47899111D01*
X117582739Y-47986739D01*
X117495111Y-48103795D01*
X117444011Y-48240795D01*
X117444011Y-48240797D01*
X117437500Y-48301345D01*
X117437500Y-50098654D01*
X117444011Y-50159202D01*
X117444011Y-50159204D01*
X117493162Y-50290978D01*
X117495111Y-50296204D01*
X117582739Y-50413261D01*
X117699796Y-50500889D01*
X117836799Y-50551989D01*
X117864050Y-50554918D01*
X117897345Y-50558499D01*
X117897362Y-50558500D01*
X119694638Y-50558500D01*
X119694654Y-50558499D01*
X119721692Y-50555591D01*
X119755201Y-50551989D01*
X119892204Y-50500889D01*
X120009261Y-50413261D01*
X120096889Y-50296204D01*
X120141957Y-50175371D01*
X120183827Y-50119442D01*
X120249291Y-50095025D01*
X120317564Y-50109877D01*
X120345818Y-50131028D01*
X120450996Y-50236206D01*
X120623991Y-50361894D01*
X120659334Y-50379902D01*
X120814516Y-50458972D01*
X120814519Y-50458973D01*
X120916200Y-50492010D01*
X121017884Y-50525049D01*
X121229084Y-50558500D01*
X121229085Y-50558500D01*
X121442915Y-50558500D01*
X121442916Y-50558500D01*
X121654116Y-50525049D01*
X121857483Y-50458972D01*
X122048009Y-50361894D01*
X122221004Y-50236206D01*
X122372206Y-50085004D01*
X122497894Y-49912009D01*
X122497896Y-49912004D01*
X122500270Y-49908132D01*
X122552080Y-49861254D01*
X122621009Y-49849829D01*
X122685173Y-49877483D01*
X122711730Y-49908132D01*
X122714103Y-49912005D01*
X122714105Y-49912008D01*
X122714106Y-49912009D01*
X122839794Y-50085004D01*
X122990996Y-50236206D01*
X123163991Y-50361894D01*
X123199334Y-50379902D01*
X123354516Y-50458972D01*
X123354519Y-50458973D01*
X123456200Y-50492010D01*
X123557884Y-50525049D01*
X123769084Y-50558500D01*
X123769085Y-50558500D01*
X123982915Y-50558500D01*
X123982916Y-50558500D01*
X124194116Y-50525049D01*
X124397483Y-50458972D01*
X124588009Y-50361894D01*
X124761004Y-50236206D01*
X124912206Y-50085004D01*
X125037894Y-49912009D01*
X125040283Y-49907319D01*
X125088254Y-49856522D01*
X125156074Y-49839724D01*
X125222210Y-49862258D01*
X125258196Y-49903783D01*
X125258829Y-49903396D01*
X125261167Y-49907211D01*
X125261251Y-49907308D01*
X125261371Y-49907545D01*
X125261373Y-49907547D01*
X125300728Y-49961716D01*
X125933037Y-49329408D01*
X125950075Y-49392993D01*
X126015901Y-49507007D01*
X126108993Y-49600099D01*
X126223007Y-49665925D01*
X126286590Y-49682962D01*
X125654282Y-50315269D01*
X125654282Y-50315270D01*
X125708449Y-50354624D01*
X125897782Y-50451095D01*
X126099870Y-50516757D01*
X126309754Y-50550000D01*
X126522246Y-50550000D01*
X126732127Y-50516757D01*
X126732130Y-50516757D01*
X126934217Y-50451095D01*
X127123554Y-50354622D01*
X127177716Y-50315270D01*
X127177717Y-50315270D01*
X126545408Y-49682962D01*
X126608993Y-49665925D01*
X126723007Y-49600099D01*
X126816099Y-49507007D01*
X126881925Y-49392993D01*
X126898962Y-49329409D01*
X127531270Y-49961717D01*
X127531270Y-49961716D01*
X127570621Y-49907556D01*
X127570738Y-49907327D01*
X127570808Y-49907252D01*
X127573168Y-49903402D01*
X127573976Y-49903897D01*
X127618707Y-49856526D01*
X127686526Y-49839723D01*
X127752663Y-49862254D01*
X127791712Y-49907311D01*
X127794105Y-49912008D01*
X127830220Y-49961716D01*
X127919794Y-50085004D01*
X128070996Y-50236206D01*
X128243991Y-50361894D01*
X128279334Y-50379902D01*
X128434516Y-50458972D01*
X128434519Y-50458973D01*
X128536200Y-50492010D01*
X128637884Y-50525049D01*
X128849084Y-50558500D01*
X128849085Y-50558500D01*
X129062915Y-50558500D01*
X129062916Y-50558500D01*
X129154954Y-50543922D01*
X129224247Y-50552876D01*
X129262033Y-50578714D01*
X130073481Y-51390163D01*
X130073482Y-51390164D01*
X130073485Y-51390166D01*
X130197716Y-51473174D01*
X130335753Y-51530351D01*
X130376721Y-51538500D01*
X130403114Y-51543750D01*
X130482291Y-51559500D01*
X130482294Y-51559500D01*
X130482295Y-51559500D01*
X130631705Y-51559500D01*
X134935457Y-51559500D01*
X135002496Y-51579185D01*
X135023138Y-51595819D01*
X136475181Y-53047862D01*
X136508666Y-53109185D01*
X136511500Y-53135543D01*
X136511500Y-54593291D01*
X136491815Y-54660330D01*
X136460386Y-54693609D01*
X136381720Y-54750764D01*
X136287278Y-54819380D01*
X136287276Y-54819382D01*
X136287275Y-54819382D01*
X136119382Y-54987275D01*
X136119375Y-54987284D01*
X136100317Y-55013515D01*
X136044987Y-55056181D01*
X135975374Y-55062159D01*
X135913579Y-55029553D01*
X135899683Y-55013515D01*
X135880624Y-54987284D01*
X135880620Y-54987278D01*
X135712722Y-54819380D01*
X135520627Y-54679815D01*
X135488499Y-54663445D01*
X135309067Y-54572019D01*
X135083241Y-54498643D01*
X134848727Y-54461500D01*
X134848722Y-54461500D01*
X134611278Y-54461500D01*
X134611273Y-54461500D01*
X134376758Y-54498643D01*
X134150932Y-54572019D01*
X133939372Y-54679815D01*
X133747275Y-54819382D01*
X133579382Y-54987275D01*
X133439815Y-55179372D01*
X133332017Y-55390936D01*
X133312050Y-55452388D01*
X133281801Y-55501749D01*
X132672962Y-56110588D01*
X132655925Y-56047007D01*
X132590099Y-55932993D01*
X132497007Y-55839901D01*
X132382993Y-55774075D01*
X132319410Y-55757037D01*
X133208884Y-54867564D01*
X133167186Y-54825866D01*
X132976171Y-54687085D01*
X132765802Y-54579897D01*
X132541247Y-54506934D01*
X132541248Y-54506934D01*
X132308052Y-54470000D01*
X132071948Y-54470000D01*
X131838752Y-54506934D01*
X131614197Y-54579897D01*
X131403828Y-54687085D01*
X131212813Y-54825866D01*
X131171116Y-54867564D01*
X132060589Y-55757037D01*
X131997007Y-55774075D01*
X131882993Y-55839901D01*
X131789901Y-55932993D01*
X131724075Y-56047007D01*
X131707037Y-56110589D01*
X130864281Y-55267833D01*
X130864281Y-55267834D01*
X130799898Y-55394194D01*
X130726934Y-55618752D01*
X130690000Y-55851947D01*
X130690000Y-56628052D01*
X130726934Y-56861247D01*
X130799897Y-57085802D01*
X130864282Y-57212164D01*
X131707037Y-56369410D01*
X131724075Y-56432993D01*
X131789901Y-56547007D01*
X131882993Y-56640099D01*
X131997007Y-56705925D01*
X132060589Y-56722962D01*
X131171116Y-57612436D01*
X131212813Y-57654133D01*
X131403828Y-57792914D01*
X131614197Y-57900102D01*
X131838752Y-57973065D01*
X131838751Y-57973065D01*
X132071948Y-58010000D01*
X132308052Y-58010000D01*
X132541247Y-57973065D01*
X132765802Y-57900102D01*
X132976171Y-57792914D01*
X133167186Y-57654133D01*
X133208884Y-57612436D01*
X132319410Y-56722962D01*
X132382993Y-56705925D01*
X132497007Y-56640099D01*
X132590099Y-56547007D01*
X132655925Y-56432993D01*
X132672962Y-56369410D01*
X133281801Y-56978249D01*
X133312051Y-57027611D01*
X133332019Y-57089067D01*
X133412642Y-57247297D01*
X133439815Y-57300627D01*
X133579380Y-57492722D01*
X133747278Y-57660620D01*
X133939373Y-57800185D01*
X133999119Y-57830627D01*
X134150932Y-57907980D01*
X134150934Y-57907980D01*
X134150937Y-57907982D01*
X134271984Y-57947312D01*
X134376758Y-57981356D01*
X134611273Y-58018500D01*
X134611278Y-58018500D01*
X134848717Y-58018500D01*
X134848722Y-58018500D01*
X134870140Y-58015107D01*
X134939429Y-58024060D01*
X134977218Y-58049899D01*
X135957137Y-59029819D01*
X135990622Y-59091142D01*
X135985638Y-59160834D01*
X135943766Y-59216767D01*
X135878302Y-59241184D01*
X135869456Y-59241500D01*
X133925292Y-59241500D01*
X133789558Y-59268500D01*
X133778764Y-59270647D01*
X133778754Y-59270649D01*
X133778750Y-59270650D01*
X133640719Y-59327824D01*
X133516482Y-59410835D01*
X131375836Y-61551481D01*
X131375831Y-61551487D01*
X131330933Y-61618681D01*
X131277320Y-61663485D01*
X131207995Y-61672192D01*
X131144968Y-61642037D01*
X131140151Y-61637470D01*
X127151437Y-57648755D01*
X125132517Y-55629835D01*
X125020616Y-55555066D01*
X125008284Y-55546826D01*
X124870247Y-55489649D01*
X124870239Y-55489647D01*
X124765201Y-55468754D01*
X124765200Y-55468753D01*
X124744453Y-55464627D01*
X124723707Y-55460500D01*
X124723706Y-55460500D01*
X115863543Y-55460500D01*
X115796504Y-55440815D01*
X115775862Y-55424181D01*
X115255564Y-54903883D01*
X112072518Y-51720836D01*
X112072517Y-51720835D01*
X111948283Y-51637825D01*
X111855046Y-51599205D01*
X111800643Y-51555363D01*
X111778579Y-51489069D01*
X111778500Y-51484644D01*
X111778500Y-51261362D01*
X111778499Y-51261345D01*
X111775157Y-51230270D01*
X111771989Y-51200799D01*
X111720889Y-51063796D01*
X111633261Y-50946739D01*
X111574732Y-50902925D01*
X111516205Y-50859111D01*
X111508709Y-50855019D01*
X111459303Y-50805615D01*
X111444449Y-50737343D01*
X111467815Y-50673299D01*
X111552914Y-50556171D01*
X111660102Y-50345802D01*
X111733065Y-50121247D01*
X111770000Y-49888052D01*
X111770000Y-49651947D01*
X111733065Y-49418752D01*
X111660102Y-49194197D01*
X111625080Y-49125461D01*
X111598879Y-49074038D01*
X113639500Y-49074038D01*
X113639500Y-49325961D01*
X113678910Y-49574785D01*
X113756760Y-49814383D01*
X113871132Y-50038848D01*
X114019201Y-50242649D01*
X114019205Y-50242654D01*
X114197345Y-50420794D01*
X114197350Y-50420798D01*
X114307587Y-50500889D01*
X114401155Y-50568870D01*
X114544184Y-50641747D01*
X114625616Y-50683239D01*
X114625618Y-50683239D01*
X114625621Y-50683241D01*
X114865215Y-50761090D01*
X115114038Y-50800500D01*
X115114039Y-50800500D01*
X115365961Y-50800500D01*
X115365962Y-50800500D01*
X115614785Y-50761090D01*
X115854379Y-50683241D01*
X116078845Y-50568870D01*
X116282656Y-50420793D01*
X116460793Y-50242656D01*
X116608870Y-50038845D01*
X116723241Y-49814379D01*
X116801090Y-49574785D01*
X116840500Y-49325962D01*
X116840500Y-49074038D01*
X116801090Y-48825215D01*
X116723241Y-48585621D01*
X116723239Y-48585618D01*
X116723239Y-48585616D01*
X116675885Y-48492679D01*
X116608870Y-48361155D01*
X116562602Y-48297472D01*
X116460798Y-48157350D01*
X116460794Y-48157345D01*
X116282654Y-47979205D01*
X116282649Y-47979201D01*
X116078848Y-47831132D01*
X116078847Y-47831131D01*
X116078845Y-47831130D01*
X115984381Y-47782998D01*
X115854383Y-47716760D01*
X115614785Y-47638910D01*
X115365962Y-47599500D01*
X115114038Y-47599500D01*
X114989626Y-47619205D01*
X114865214Y-47638910D01*
X114625616Y-47716760D01*
X114401151Y-47831132D01*
X114197350Y-47979201D01*
X114197345Y-47979205D01*
X114019205Y-48157345D01*
X114019201Y-48157350D01*
X113871132Y-48361151D01*
X113756760Y-48585616D01*
X113678910Y-48825214D01*
X113639500Y-49074038D01*
X111598879Y-49074038D01*
X111552914Y-48983828D01*
X111414133Y-48792813D01*
X111372436Y-48751116D01*
X110482962Y-49640589D01*
X110465925Y-49577007D01*
X110400099Y-49462993D01*
X110307007Y-49369901D01*
X110192993Y-49304075D01*
X110129410Y-49287037D01*
X110738249Y-48678197D01*
X110787609Y-48647949D01*
X110849063Y-48627982D01*
X111060627Y-48520185D01*
X111252722Y-48380620D01*
X111420620Y-48212722D01*
X111560185Y-48020627D01*
X111667982Y-47809063D01*
X111741356Y-47583241D01*
X111752811Y-47510915D01*
X111776223Y-47363102D01*
X111806152Y-47299967D01*
X111865464Y-47263036D01*
X111898696Y-47258500D01*
X117913500Y-47258500D01*
X117980539Y-47278185D01*
G37*
%TD.AperFunction*%
%TA.AperFunction,Conductor*%
G36*
X163417539Y-41075155D02*
G01*
X163484494Y-41095119D01*
X163504700Y-41111473D01*
X165928181Y-43534954D01*
X165961666Y-43596277D01*
X165964500Y-43622635D01*
X165964500Y-59344982D01*
X165964500Y-59375018D01*
X165975994Y-59402767D01*
X165975995Y-59402768D01*
X168468179Y-61894953D01*
X168501664Y-61956276D01*
X168504498Y-61982634D01*
X168504417Y-108170414D01*
X168484732Y-108237454D01*
X168431928Y-108283208D01*
X168380893Y-108294413D01*
X100182287Y-108556161D01*
X100115172Y-108536734D01*
X100069215Y-108484106D01*
X100057811Y-108432133D01*
X100064568Y-82862848D01*
X104190500Y-82862848D01*
X104190500Y-82869982D01*
X104190500Y-96297155D01*
X104205074Y-96370422D01*
X104219647Y-96443685D01*
X104219649Y-96443693D01*
X104276825Y-96581728D01*
X104359835Y-96705963D01*
X112794035Y-105140163D01*
X112794039Y-105140166D01*
X112918262Y-105223170D01*
X112918275Y-105223177D01*
X113001091Y-105257480D01*
X113056307Y-105280351D01*
X113088807Y-105286815D01*
X113129524Y-105294915D01*
X113129551Y-105294919D01*
X113129578Y-105294925D01*
X113202848Y-105309500D01*
X135074706Y-105309500D01*
X135147976Y-105294925D01*
X135147977Y-105294925D01*
X135166419Y-105291256D01*
X135221247Y-105280351D01*
X135359284Y-105223174D01*
X135483515Y-105140166D01*
X136349165Y-104274516D01*
X136432173Y-104150285D01*
X136432174Y-104150284D01*
X136489351Y-104012246D01*
X136518500Y-103865706D01*
X136518500Y-103517499D01*
X136538185Y-103450460D01*
X136590989Y-103404705D01*
X136604185Y-103399567D01*
X136605144Y-103399255D01*
X136609063Y-103397982D01*
X136820627Y-103290185D01*
X137012722Y-103150620D01*
X137180620Y-102982722D01*
X137320185Y-102790627D01*
X137427982Y-102579063D01*
X137501356Y-102353241D01*
X137508774Y-102306408D01*
X137538500Y-102118727D01*
X137538500Y-101881272D01*
X137501356Y-101646758D01*
X137427980Y-101420932D01*
X137335110Y-101238666D01*
X137320185Y-101209373D01*
X137180620Y-101017278D01*
X137012722Y-100849380D01*
X136820627Y-100709815D01*
X136784682Y-100691500D01*
X136609066Y-100602019D01*
X136609063Y-100602018D01*
X136604177Y-100600430D01*
X136546504Y-100560991D01*
X136519308Y-100496631D01*
X136518500Y-100482501D01*
X136518500Y-100165542D01*
X136538185Y-100098503D01*
X136554814Y-100077866D01*
X137793968Y-98838711D01*
X137855289Y-98805228D01*
X137901039Y-98803921D01*
X137993084Y-98818500D01*
X137993086Y-98818500D01*
X138206915Y-98818500D01*
X138206916Y-98818500D01*
X138418116Y-98785049D01*
X138621483Y-98718972D01*
X138812009Y-98621894D01*
X138985004Y-98496206D01*
X139136206Y-98345004D01*
X139261894Y-98172009D01*
X139264283Y-98167319D01*
X139312254Y-98116522D01*
X139380074Y-98099724D01*
X139446210Y-98122258D01*
X139482196Y-98163783D01*
X139482829Y-98163396D01*
X139485167Y-98167211D01*
X139485251Y-98167308D01*
X139485371Y-98167545D01*
X139485373Y-98167547D01*
X139524728Y-98221716D01*
X140157037Y-97589408D01*
X140174075Y-97652993D01*
X140239901Y-97767007D01*
X140332993Y-97860099D01*
X140447007Y-97925925D01*
X140510590Y-97942962D01*
X139878282Y-98575269D01*
X139878282Y-98575270D01*
X139932449Y-98614624D01*
X140121782Y-98711095D01*
X140323870Y-98776757D01*
X140533754Y-98810000D01*
X140746246Y-98810000D01*
X140956127Y-98776757D01*
X140956130Y-98776757D01*
X141158217Y-98711095D01*
X141347554Y-98614622D01*
X141401716Y-98575270D01*
X141401717Y-98575270D01*
X140769408Y-97942962D01*
X140832993Y-97925925D01*
X140947007Y-97860099D01*
X141040099Y-97767007D01*
X141105925Y-97652993D01*
X141122962Y-97589408D01*
X141755270Y-98221717D01*
X141755270Y-98221716D01*
X141794622Y-98167554D01*
X141799514Y-98157954D01*
X141847488Y-98107157D01*
X141915308Y-98090361D01*
X141981444Y-98112897D01*
X142020486Y-98157954D01*
X142025375Y-98167550D01*
X142064728Y-98221716D01*
X142697036Y-97589407D01*
X142714075Y-97652993D01*
X142779901Y-97767007D01*
X142872993Y-97860099D01*
X142987007Y-97925925D01*
X143050590Y-97942962D01*
X142418282Y-98575269D01*
X142418282Y-98575270D01*
X142472449Y-98614624D01*
X142661782Y-98711095D01*
X142863870Y-98776757D01*
X143073754Y-98810000D01*
X143286246Y-98810000D01*
X143496127Y-98776757D01*
X143496130Y-98776757D01*
X143698217Y-98711095D01*
X143887554Y-98614622D01*
X143941716Y-98575270D01*
X143941717Y-98575270D01*
X143309408Y-97942962D01*
X143372993Y-97925925D01*
X143487007Y-97860099D01*
X143580099Y-97767007D01*
X143645925Y-97652993D01*
X143662962Y-97589409D01*
X144295270Y-98221717D01*
X144295270Y-98221716D01*
X144334621Y-98167556D01*
X144334738Y-98167327D01*
X144334808Y-98167252D01*
X144337168Y-98163402D01*
X144337976Y-98163897D01*
X144382707Y-98116526D01*
X144450526Y-98099723D01*
X144516663Y-98122254D01*
X144555712Y-98167311D01*
X144558105Y-98172008D01*
X144594220Y-98221716D01*
X144683794Y-98345004D01*
X144834996Y-98496206D01*
X145007991Y-98621894D01*
X145101438Y-98669507D01*
X145198516Y-98718972D01*
X145198519Y-98718973D01*
X145300200Y-98752010D01*
X145401884Y-98785049D01*
X145613084Y-98818500D01*
X145613085Y-98818500D01*
X145826915Y-98818500D01*
X145826916Y-98818500D01*
X146038116Y-98785049D01*
X146241483Y-98718972D01*
X146432009Y-98621894D01*
X146605004Y-98496206D01*
X146756206Y-98345004D01*
X146881894Y-98172009D01*
X146978972Y-97981483D01*
X147045049Y-97778116D01*
X147078500Y-97566916D01*
X147078500Y-97353084D01*
X147045049Y-97141884D01*
X146978972Y-96938517D01*
X146978972Y-96938516D01*
X146923495Y-96829638D01*
X146881894Y-96747991D01*
X146756206Y-96574996D01*
X146605004Y-96423794D01*
X146432009Y-96298106D01*
X146430137Y-96297152D01*
X146241483Y-96201027D01*
X146241480Y-96201026D01*
X146038117Y-96134951D01*
X145932516Y-96118225D01*
X145826916Y-96101500D01*
X145613084Y-96101500D01*
X145542684Y-96112650D01*
X145401882Y-96134951D01*
X145198519Y-96201026D01*
X145198516Y-96201027D01*
X145007990Y-96298106D01*
X144834993Y-96423796D01*
X144683796Y-96574993D01*
X144558103Y-96747994D01*
X144555709Y-96752693D01*
X144507731Y-96803485D01*
X144439908Y-96820275D01*
X144373775Y-96797732D01*
X144337804Y-96756215D01*
X144337171Y-96756604D01*
X144334826Y-96752778D01*
X144334743Y-96752682D01*
X144334624Y-96752449D01*
X144295270Y-96698282D01*
X144295269Y-96698282D01*
X143662962Y-97330590D01*
X143645925Y-97267007D01*
X143580099Y-97152993D01*
X143487007Y-97059901D01*
X143372993Y-96994075D01*
X143309409Y-96977037D01*
X143941716Y-96344728D01*
X143887550Y-96305375D01*
X143698217Y-96208904D01*
X143496129Y-96143242D01*
X143286246Y-96110000D01*
X143073754Y-96110000D01*
X142863872Y-96143242D01*
X142863869Y-96143242D01*
X142661782Y-96208904D01*
X142472439Y-96305380D01*
X142418282Y-96344727D01*
X142418282Y-96344728D01*
X143050591Y-96977037D01*
X142987007Y-96994075D01*
X142872993Y-97059901D01*
X142779901Y-97152993D01*
X142714075Y-97267007D01*
X142697037Y-97330591D01*
X142064728Y-96698282D01*
X142064727Y-96698282D01*
X142025380Y-96752440D01*
X142020483Y-96762051D01*
X141972506Y-96812845D01*
X141904684Y-96829638D01*
X141838550Y-96807098D01*
X141799516Y-96762048D01*
X141794626Y-96752452D01*
X141755270Y-96698282D01*
X141755269Y-96698282D01*
X141122962Y-97330590D01*
X141105925Y-97267007D01*
X141040099Y-97152993D01*
X140947007Y-97059901D01*
X140832993Y-96994075D01*
X140769409Y-96977037D01*
X141401716Y-96344728D01*
X141347550Y-96305375D01*
X141158217Y-96208904D01*
X140956129Y-96143242D01*
X140746246Y-96110000D01*
X140533754Y-96110000D01*
X140323872Y-96143242D01*
X140323869Y-96143242D01*
X140121782Y-96208904D01*
X139932439Y-96305380D01*
X139878282Y-96344727D01*
X139878282Y-96344728D01*
X140510591Y-96977037D01*
X140447007Y-96994075D01*
X140332993Y-97059901D01*
X140239901Y-97152993D01*
X140174075Y-97267007D01*
X140157037Y-97330591D01*
X139524728Y-96698282D01*
X139524727Y-96698282D01*
X139485380Y-96752440D01*
X139485374Y-96752449D01*
X139485246Y-96752702D01*
X139485172Y-96752780D01*
X139482838Y-96756590D01*
X139482036Y-96756099D01*
X139437264Y-96803490D01*
X139369441Y-96820275D01*
X139303309Y-96797728D01*
X139264283Y-96752680D01*
X139261894Y-96747991D01*
X139136206Y-96574996D01*
X138985004Y-96423794D01*
X138812009Y-96298106D01*
X138810137Y-96297152D01*
X138621483Y-96201027D01*
X138621480Y-96201026D01*
X138418117Y-96134951D01*
X138312516Y-96118225D01*
X138206916Y-96101500D01*
X137993084Y-96101500D01*
X137922684Y-96112650D01*
X137781882Y-96134951D01*
X137578519Y-96201026D01*
X137578516Y-96201027D01*
X137387990Y-96298106D01*
X137214993Y-96423796D01*
X137063796Y-96574993D01*
X136938105Y-96747991D01*
X136935727Y-96751873D01*
X136883914Y-96798748D01*
X136814984Y-96810169D01*
X136750822Y-96782512D01*
X136724273Y-96751873D01*
X136721894Y-96747991D01*
X136629742Y-96621155D01*
X136596206Y-96574996D01*
X136445004Y-96423794D01*
X136272009Y-96298106D01*
X136270137Y-96297152D01*
X136081483Y-96201027D01*
X136081480Y-96201026D01*
X135878117Y-96134951D01*
X135772516Y-96118225D01*
X135666916Y-96101500D01*
X135453084Y-96101500D01*
X135382684Y-96112650D01*
X135241882Y-96134951D01*
X135038519Y-96201026D01*
X135038516Y-96201027D01*
X134847990Y-96298106D01*
X134674993Y-96423796D01*
X134523796Y-96574993D01*
X134398105Y-96747991D01*
X134395727Y-96751873D01*
X134343914Y-96798748D01*
X134274984Y-96810169D01*
X134210822Y-96782512D01*
X134184273Y-96751873D01*
X134181894Y-96747991D01*
X134089742Y-96621155D01*
X134056206Y-96574996D01*
X133905004Y-96423794D01*
X133732009Y-96298106D01*
X133730137Y-96297152D01*
X133541483Y-96201027D01*
X133541480Y-96201026D01*
X133338117Y-96134951D01*
X133232516Y-96118225D01*
X133126916Y-96101500D01*
X132913084Y-96101500D01*
X132842684Y-96112650D01*
X132701882Y-96134951D01*
X132498519Y-96201026D01*
X132498516Y-96201027D01*
X132307990Y-96298106D01*
X132134993Y-96423796D01*
X131983796Y-96574993D01*
X131858105Y-96747991D01*
X131855727Y-96751873D01*
X131803914Y-96798748D01*
X131734984Y-96810169D01*
X131670822Y-96782512D01*
X131644273Y-96751873D01*
X131641894Y-96747991D01*
X131549742Y-96621155D01*
X131516206Y-96574996D01*
X131365004Y-96423794D01*
X131192009Y-96298106D01*
X131190137Y-96297152D01*
X131001483Y-96201027D01*
X131001480Y-96201026D01*
X130798117Y-96134951D01*
X130692516Y-96118225D01*
X130586916Y-96101500D01*
X130373084Y-96101500D01*
X130302684Y-96112650D01*
X130161882Y-96134951D01*
X129958519Y-96201026D01*
X129958516Y-96201027D01*
X129767990Y-96298106D01*
X129594997Y-96423793D01*
X129489818Y-96528972D01*
X129428495Y-96562456D01*
X129358803Y-96557472D01*
X129302870Y-96515600D01*
X129285958Y-96484629D01*
X129240889Y-96363796D01*
X129153261Y-96246739D01*
X129036204Y-96159111D01*
X128899203Y-96108011D01*
X128838654Y-96101500D01*
X128838638Y-96101500D01*
X127041362Y-96101500D01*
X127041345Y-96101500D01*
X126980797Y-96108011D01*
X126980795Y-96108011D01*
X126843795Y-96159111D01*
X126726739Y-96246739D01*
X126639111Y-96363795D01*
X126588011Y-96500795D01*
X126588011Y-96500797D01*
X126581500Y-96561345D01*
X126581500Y-98358654D01*
X126588011Y-98419202D01*
X126588011Y-98419204D01*
X126619138Y-98502656D01*
X126639111Y-98556204D01*
X126726739Y-98673261D01*
X126843796Y-98760889D01*
X126980799Y-98811989D01*
X127008050Y-98814918D01*
X127041345Y-98818499D01*
X127041362Y-98818500D01*
X128838638Y-98818500D01*
X128838654Y-98818499D01*
X128865692Y-98815591D01*
X128899201Y-98811989D01*
X129036204Y-98760889D01*
X129153261Y-98673261D01*
X129240889Y-98556204D01*
X129285957Y-98435371D01*
X129327827Y-98379442D01*
X129393291Y-98355025D01*
X129461564Y-98369877D01*
X129489818Y-98391028D01*
X129594996Y-98496206D01*
X129767991Y-98621894D01*
X129861438Y-98669507D01*
X129958516Y-98718972D01*
X129958519Y-98718973D01*
X130060200Y-98752010D01*
X130161884Y-98785049D01*
X130373084Y-98818500D01*
X130373085Y-98818500D01*
X130586915Y-98818500D01*
X130586916Y-98818500D01*
X130798116Y-98785049D01*
X131001483Y-98718972D01*
X131192009Y-98621894D01*
X131365004Y-98496206D01*
X131516206Y-98345004D01*
X131641894Y-98172009D01*
X131641896Y-98172004D01*
X131644270Y-98168132D01*
X131696080Y-98121254D01*
X131765009Y-98109829D01*
X131829173Y-98137483D01*
X131855730Y-98168132D01*
X131858103Y-98172005D01*
X131858105Y-98172008D01*
X131858106Y-98172009D01*
X131983794Y-98345004D01*
X132134996Y-98496206D01*
X132307991Y-98621894D01*
X132401438Y-98669507D01*
X132498516Y-98718972D01*
X132498519Y-98718973D01*
X132600200Y-98752010D01*
X132701884Y-98785049D01*
X132913084Y-98818500D01*
X132913085Y-98818500D01*
X133126915Y-98818500D01*
X133126916Y-98818500D01*
X133338116Y-98785049D01*
X133541483Y-98718972D01*
X133732009Y-98621894D01*
X133905004Y-98496206D01*
X134056206Y-98345004D01*
X134181894Y-98172009D01*
X134181896Y-98172004D01*
X134184270Y-98168132D01*
X134236080Y-98121254D01*
X134305009Y-98109829D01*
X134369173Y-98137483D01*
X134395730Y-98168132D01*
X134398103Y-98172005D01*
X134398105Y-98172008D01*
X134398106Y-98172009D01*
X134523794Y-98345004D01*
X134674996Y-98496206D01*
X134847991Y-98621894D01*
X134941438Y-98669507D01*
X135038516Y-98718972D01*
X135038519Y-98718973D01*
X135241883Y-98785049D01*
X135283526Y-98791644D01*
X135398954Y-98809926D01*
X135462088Y-98839855D01*
X135499020Y-98899166D01*
X135498022Y-98969029D01*
X135467238Y-99020080D01*
X135402457Y-99084860D01*
X135276484Y-99210835D01*
X135223658Y-99263660D01*
X135170833Y-99316485D01*
X135087829Y-99440709D01*
X135087822Y-99440722D01*
X135030650Y-99578749D01*
X135030647Y-99578759D01*
X135001500Y-99725291D01*
X135001500Y-100482501D01*
X134981815Y-100549540D01*
X134929011Y-100595295D01*
X134915825Y-100600429D01*
X134913604Y-100601151D01*
X134910933Y-100602019D01*
X134699372Y-100709815D01*
X134507275Y-100849382D01*
X134339382Y-101017275D01*
X134199815Y-101209372D01*
X134092019Y-101420932D01*
X134018643Y-101646758D01*
X133981500Y-101881272D01*
X133981500Y-102118727D01*
X134018643Y-102353241D01*
X134092019Y-102579067D01*
X134193475Y-102778185D01*
X134199815Y-102790627D01*
X134339380Y-102982722D01*
X134507278Y-103150620D01*
X134699373Y-103290185D01*
X134806220Y-103344626D01*
X134871088Y-103377678D01*
X134921884Y-103425653D01*
X134938679Y-103493474D01*
X134916142Y-103559608D01*
X134902474Y-103575844D01*
X134722138Y-103756181D01*
X134660815Y-103789666D01*
X134634457Y-103792500D01*
X113643097Y-103792500D01*
X113576058Y-103772815D01*
X113555416Y-103756181D01*
X113143861Y-103344626D01*
X113110376Y-103283303D01*
X113115360Y-103213611D01*
X113157232Y-103157678D01*
X113222696Y-103133261D01*
X113287837Y-103146460D01*
X113417705Y-103212632D01*
X113417707Y-103212632D01*
X113417710Y-103212634D01*
X113522707Y-103246749D01*
X113613591Y-103276280D01*
X113701384Y-103290185D01*
X113817019Y-103308500D01*
X113817020Y-103308500D01*
X114022980Y-103308500D01*
X114022981Y-103308500D01*
X114226408Y-103276280D01*
X114422290Y-103212634D01*
X114605803Y-103119129D01*
X114772430Y-102998068D01*
X114918068Y-102852430D01*
X114949175Y-102809615D01*
X115004505Y-102766949D01*
X115049493Y-102758500D01*
X116074706Y-102758500D01*
X116147976Y-102743925D01*
X116147977Y-102743925D01*
X116166419Y-102740256D01*
X116221247Y-102729351D01*
X116359284Y-102672174D01*
X116483515Y-102589166D01*
X116766273Y-102306408D01*
X117175663Y-101897019D01*
X122771500Y-101897019D01*
X122771500Y-102102980D01*
X122803719Y-102306408D01*
X122867367Y-102502294D01*
X122960873Y-102685806D01*
X123081926Y-102852423D01*
X123081930Y-102852428D01*
X123227571Y-102998069D01*
X123227576Y-102998073D01*
X123372908Y-103103661D01*
X123394197Y-103119129D01*
X123511128Y-103178709D01*
X123577705Y-103212632D01*
X123577707Y-103212632D01*
X123577710Y-103212634D01*
X123682707Y-103246749D01*
X123773591Y-103276280D01*
X123861384Y-103290185D01*
X123977019Y-103308500D01*
X123977020Y-103308500D01*
X124182980Y-103308500D01*
X124182981Y-103308500D01*
X124386408Y-103276280D01*
X124582290Y-103212634D01*
X124765803Y-103119129D01*
X124932430Y-102998068D01*
X125078068Y-102852430D01*
X125109175Y-102809615D01*
X125164505Y-102766949D01*
X125209493Y-102758500D01*
X126593293Y-102758500D01*
X126660332Y-102778185D01*
X126693609Y-102809613D01*
X126819380Y-102982722D01*
X126987278Y-103150620D01*
X127179373Y-103290185D01*
X127279328Y-103341114D01*
X127390932Y-103397980D01*
X127390934Y-103397980D01*
X127390937Y-103397982D01*
X127476100Y-103425653D01*
X127616758Y-103471356D01*
X127851273Y-103508500D01*
X127851278Y-103508500D01*
X128628727Y-103508500D01*
X128863241Y-103471356D01*
X128927552Y-103450460D01*
X129089063Y-103397982D01*
X129300627Y-103290185D01*
X129492722Y-103150620D01*
X129660620Y-102982722D01*
X129800185Y-102790627D01*
X129907982Y-102579063D01*
X129981356Y-102353241D01*
X129988774Y-102306408D01*
X130018500Y-102118727D01*
X130018500Y-101881272D01*
X129981356Y-101646758D01*
X129907980Y-101420932D01*
X129815110Y-101238666D01*
X129800185Y-101209373D01*
X129660620Y-101017278D01*
X129492722Y-100849380D01*
X129300627Y-100709815D01*
X129264682Y-100691500D01*
X129089067Y-100602019D01*
X128863241Y-100528643D01*
X128628727Y-100491500D01*
X128628722Y-100491500D01*
X127851278Y-100491500D01*
X127851273Y-100491500D01*
X127616758Y-100528643D01*
X127390932Y-100602019D01*
X127179372Y-100709815D01*
X126987275Y-100849382D01*
X126819382Y-101017275D01*
X126819377Y-101017281D01*
X126736792Y-101130950D01*
X126724718Y-101147570D01*
X126693611Y-101190385D01*
X126638281Y-101233051D01*
X126593293Y-101241500D01*
X125209493Y-101241500D01*
X125142454Y-101221815D01*
X125109175Y-101190385D01*
X125078070Y-101147573D01*
X125078068Y-101147570D01*
X124932430Y-101001932D01*
X124932428Y-101001930D01*
X124932423Y-101001926D01*
X124765806Y-100880873D01*
X124765805Y-100880872D01*
X124765803Y-100880871D01*
X124703999Y-100849380D01*
X124582294Y-100787367D01*
X124386408Y-100723719D01*
X124210794Y-100695905D01*
X124182981Y-100691500D01*
X123977019Y-100691500D01*
X123952550Y-100695375D01*
X123773591Y-100723719D01*
X123577705Y-100787367D01*
X123394193Y-100880873D01*
X123227576Y-101001926D01*
X123227571Y-101001930D01*
X123081930Y-101147571D01*
X123081926Y-101147576D01*
X122960873Y-101314193D01*
X122867367Y-101497705D01*
X122803719Y-101693591D01*
X122771500Y-101897019D01*
X117175663Y-101897019D01*
X117268216Y-101804466D01*
X118089162Y-100983519D01*
X118089165Y-100983516D01*
X118172173Y-100859285D01*
X118172174Y-100859284D01*
X118205667Y-100778424D01*
X118229351Y-100721247D01*
X118258500Y-100574705D01*
X118258500Y-100425295D01*
X118258500Y-91925294D01*
X118258500Y-91925291D01*
X118258499Y-91925289D01*
X118229353Y-91778764D01*
X118229352Y-91778763D01*
X118229351Y-91778754D01*
X118226346Y-91771500D01*
X118175503Y-91648752D01*
X118172177Y-91640723D01*
X118172176Y-91640722D01*
X118172174Y-91640716D01*
X118089166Y-91516485D01*
X118089164Y-91516482D01*
X118089163Y-91516481D01*
X114042862Y-87470181D01*
X114009377Y-87408858D01*
X114014361Y-87339166D01*
X114056233Y-87283233D01*
X114121697Y-87258816D01*
X114130543Y-87258500D01*
X114574706Y-87258500D01*
X114647976Y-87243925D01*
X114647977Y-87243925D01*
X114666419Y-87240256D01*
X114721247Y-87229351D01*
X114859284Y-87172174D01*
X114983515Y-87089166D01*
X115062860Y-87009819D01*
X115124182Y-86976334D01*
X115169937Y-86975027D01*
X115277143Y-86992006D01*
X115381274Y-87008500D01*
X115381278Y-87008500D01*
X115618727Y-87008500D01*
X115853241Y-86971356D01*
X115878758Y-86963065D01*
X116079063Y-86897982D01*
X116290627Y-86790185D01*
X116482722Y-86650620D01*
X116650620Y-86482722D01*
X116790185Y-86290627D01*
X116897982Y-86079063D01*
X116971356Y-85853241D01*
X116992172Y-85721815D01*
X117008500Y-85618727D01*
X117008500Y-85381947D01*
X119000000Y-85381947D01*
X119000000Y-85618052D01*
X119036934Y-85851247D01*
X119109897Y-86075802D01*
X119217087Y-86286174D01*
X119277338Y-86369104D01*
X119277340Y-86369105D01*
X120017037Y-85629408D01*
X120034075Y-85692993D01*
X120099901Y-85807007D01*
X120192993Y-85900099D01*
X120307007Y-85965925D01*
X120370590Y-85982962D01*
X119630893Y-86722658D01*
X119713828Y-86782914D01*
X119924197Y-86890102D01*
X120148752Y-86963065D01*
X120148751Y-86963065D01*
X120381948Y-87000000D01*
X120618052Y-87000000D01*
X120851247Y-86963065D01*
X121075802Y-86890102D01*
X121286163Y-86782918D01*
X121286169Y-86782914D01*
X121369104Y-86722658D01*
X121369105Y-86722658D01*
X120629408Y-85982962D01*
X120692993Y-85965925D01*
X120807007Y-85900099D01*
X120900099Y-85807007D01*
X120965925Y-85692993D01*
X120982962Y-85629408D01*
X121722658Y-86369105D01*
X121722658Y-86369104D01*
X121782914Y-86286169D01*
X121782918Y-86286163D01*
X121890102Y-86075802D01*
X121963065Y-85851247D01*
X122000000Y-85618052D01*
X122000000Y-85381947D01*
X121963065Y-85148752D01*
X121890102Y-84924197D01*
X121782914Y-84713828D01*
X121722658Y-84630894D01*
X121722658Y-84630893D01*
X120982962Y-85370590D01*
X120965925Y-85307007D01*
X120900099Y-85192993D01*
X120807007Y-85099901D01*
X120692993Y-85034075D01*
X120629409Y-85017037D01*
X121369105Y-84277340D01*
X121369104Y-84277338D01*
X121286174Y-84217087D01*
X121075802Y-84109897D01*
X120851247Y-84036934D01*
X120851248Y-84036934D01*
X120618052Y-84000000D01*
X120381948Y-84000000D01*
X120148752Y-84036934D01*
X119924197Y-84109897D01*
X119713830Y-84217084D01*
X119630894Y-84277340D01*
X120370591Y-85017037D01*
X120307007Y-85034075D01*
X120192993Y-85099901D01*
X120099901Y-85192993D01*
X120034075Y-85307007D01*
X120017037Y-85370591D01*
X119277340Y-84630894D01*
X119217084Y-84713830D01*
X119109897Y-84924197D01*
X119036934Y-85148752D01*
X119000000Y-85381947D01*
X117008500Y-85381947D01*
X117008500Y-85381272D01*
X116971356Y-85146758D01*
X116923671Y-85000000D01*
X116897982Y-84920937D01*
X116897980Y-84920934D01*
X116897980Y-84920932D01*
X116841114Y-84809328D01*
X116790185Y-84709373D01*
X116650620Y-84517278D01*
X116482722Y-84349380D01*
X116290627Y-84209815D01*
X116264063Y-84196280D01*
X116079067Y-84102019D01*
X115853241Y-84028643D01*
X115618727Y-83991500D01*
X115618722Y-83991500D01*
X115381278Y-83991500D01*
X115381273Y-83991500D01*
X115146758Y-84028643D01*
X114920932Y-84102019D01*
X114709372Y-84209815D01*
X114517275Y-84349382D01*
X114349382Y-84517275D01*
X114209815Y-84709372D01*
X114102019Y-84920932D01*
X114028643Y-85146758D01*
X113991500Y-85381272D01*
X113991500Y-85617500D01*
X113971815Y-85684539D01*
X113919011Y-85730294D01*
X113867500Y-85741500D01*
X113382500Y-85741500D01*
X113315461Y-85721815D01*
X113269706Y-85669011D01*
X113258500Y-85617500D01*
X113258500Y-84925291D01*
X113229352Y-84778759D01*
X113229351Y-84778758D01*
X113229351Y-84778754D01*
X113229349Y-84778749D01*
X113172177Y-84640722D01*
X113172170Y-84640709D01*
X113089166Y-84516485D01*
X113089165Y-84516484D01*
X112983516Y-84410835D01*
X112287500Y-83714819D01*
X111563518Y-82990836D01*
X111563517Y-82990835D01*
X111501399Y-82949330D01*
X111439284Y-82907826D01*
X111301247Y-82850649D01*
X111301239Y-82850647D01*
X111204642Y-82831433D01*
X111204641Y-82831432D01*
X111200057Y-82830521D01*
X111154706Y-82821500D01*
X111123024Y-82821500D01*
X111115563Y-82820592D01*
X111090100Y-82809624D01*
X111063504Y-82801815D01*
X111058463Y-82795997D01*
X111051392Y-82792952D01*
X111035899Y-82769957D01*
X111017749Y-82749011D01*
X111016653Y-82741392D01*
X111012352Y-82735008D01*
X111011750Y-82707293D01*
X111007805Y-82679853D01*
X111011003Y-82672850D01*
X111010836Y-82665154D01*
X111025313Y-82641515D01*
X111036830Y-82616297D01*
X111042862Y-82609819D01*
X118359164Y-75293517D01*
X118359166Y-75293515D01*
X118442174Y-75169284D01*
X118499351Y-75031247D01*
X118528500Y-74884705D01*
X118528500Y-74735295D01*
X118528500Y-67406707D01*
X118548185Y-67339668D01*
X118579613Y-67306390D01*
X118752722Y-67180620D01*
X118920620Y-67012722D01*
X119060185Y-66820627D01*
X119167982Y-66609063D01*
X119187949Y-66547609D01*
X119218197Y-66498249D01*
X119827037Y-65889408D01*
X119844075Y-65952993D01*
X119909901Y-66067007D01*
X120002993Y-66160099D01*
X120117007Y-66225925D01*
X120180589Y-66242962D01*
X119291116Y-67132436D01*
X119332813Y-67174133D01*
X119523828Y-67312914D01*
X119734197Y-67420102D01*
X119958752Y-67493065D01*
X119958751Y-67493065D01*
X120191948Y-67530000D01*
X120428052Y-67530000D01*
X120661247Y-67493065D01*
X120885802Y-67420102D01*
X121096171Y-67312914D01*
X121287186Y-67174133D01*
X121328884Y-67132436D01*
X120439410Y-66242962D01*
X120502993Y-66225925D01*
X120617007Y-66160099D01*
X120710099Y-66067007D01*
X120775925Y-65952993D01*
X120792962Y-65889411D01*
X121635716Y-66732165D01*
X121700104Y-66605797D01*
X121773065Y-66381247D01*
X121810000Y-66148052D01*
X121810000Y-65885755D01*
X121829685Y-65818716D01*
X121882489Y-65772961D01*
X121951647Y-65763017D01*
X122015203Y-65792042D01*
X122021681Y-65798074D01*
X125705181Y-69481574D01*
X125738666Y-69542897D01*
X125741500Y-69569255D01*
X125741500Y-72498061D01*
X125721815Y-72565100D01*
X125705181Y-72585742D01*
X125578210Y-72712712D01*
X125578210Y-72712713D01*
X125578208Y-72712715D01*
X125559365Y-72738650D01*
X125466398Y-72866607D01*
X125380040Y-73036092D01*
X125321256Y-73217008D01*
X125291500Y-73404883D01*
X125291500Y-73595116D01*
X125321256Y-73782991D01*
X125380040Y-73963907D01*
X125450071Y-74101349D01*
X125466398Y-74133392D01*
X125578208Y-74287285D01*
X125578210Y-74287287D01*
X125705181Y-74414258D01*
X125738666Y-74475581D01*
X125741500Y-74501939D01*
X125741500Y-87370507D01*
X125721815Y-87437546D01*
X125690385Y-87470825D01*
X125647573Y-87501929D01*
X125647567Y-87501934D01*
X125501930Y-87647571D01*
X125501926Y-87647576D01*
X125380873Y-87814193D01*
X125287367Y-87997705D01*
X125223719Y-88193591D01*
X125191500Y-88397019D01*
X125191500Y-88602980D01*
X125223719Y-88806408D01*
X125287367Y-89002294D01*
X125380873Y-89185806D01*
X125501926Y-89352423D01*
X125501930Y-89352428D01*
X125647571Y-89498069D01*
X125647576Y-89498073D01*
X125792908Y-89603661D01*
X125814197Y-89619129D01*
X125931128Y-89678709D01*
X125997705Y-89712632D01*
X125997707Y-89712632D01*
X125997710Y-89712634D01*
X126102707Y-89746749D01*
X126193591Y-89776280D01*
X126295305Y-89792390D01*
X126397019Y-89808500D01*
X126397020Y-89808500D01*
X126602980Y-89808500D01*
X126602981Y-89808500D01*
X126806408Y-89776280D01*
X127002290Y-89712634D01*
X127185803Y-89619129D01*
X127352430Y-89498068D01*
X127498068Y-89352430D01*
X127619129Y-89185803D01*
X127712634Y-89002290D01*
X127776280Y-88806408D01*
X127808500Y-88602981D01*
X127808500Y-88397019D01*
X127776280Y-88193592D01*
X127712634Y-87997710D01*
X127712632Y-87997707D01*
X127712632Y-87997705D01*
X127626073Y-87827826D01*
X127619129Y-87814197D01*
X127587488Y-87770647D01*
X127498073Y-87647576D01*
X127498069Y-87647571D01*
X127352432Y-87501934D01*
X127352426Y-87501929D01*
X127309615Y-87470825D01*
X127266949Y-87415495D01*
X127258500Y-87370507D01*
X127258500Y-74501939D01*
X127278185Y-74434900D01*
X127294819Y-74414258D01*
X127421792Y-74287285D01*
X127533602Y-74133392D01*
X127619961Y-73963903D01*
X127678743Y-73782991D01*
X127682152Y-73761467D01*
X127708500Y-73595116D01*
X127708500Y-73404883D01*
X127678743Y-73217008D01*
X127629822Y-73066446D01*
X127619961Y-73036097D01*
X127619959Y-73036094D01*
X127619959Y-73036092D01*
X127533601Y-72866607D01*
X127513183Y-72838504D01*
X127421792Y-72712715D01*
X127294819Y-72585742D01*
X127261334Y-72524419D01*
X127258500Y-72498061D01*
X127258500Y-69370543D01*
X127278185Y-69303504D01*
X127330989Y-69257749D01*
X127400147Y-69247805D01*
X127463703Y-69276830D01*
X127470181Y-69282862D01*
X130705181Y-72517862D01*
X130738666Y-72579185D01*
X130741500Y-72605543D01*
X130741500Y-78450507D01*
X130721815Y-78517546D01*
X130690385Y-78550825D01*
X130647573Y-78581929D01*
X130647567Y-78581934D01*
X130501930Y-78727571D01*
X130501926Y-78727576D01*
X130380873Y-78894193D01*
X130287367Y-79077705D01*
X130223719Y-79273591D01*
X130191500Y-79477019D01*
X130191500Y-79682980D01*
X130223719Y-79886408D01*
X130287367Y-80082294D01*
X130380873Y-80265806D01*
X130501926Y-80432423D01*
X130501930Y-80432428D01*
X130647573Y-80578071D01*
X130690385Y-80609175D01*
X130733051Y-80664504D01*
X130741500Y-80709493D01*
X130741500Y-87370507D01*
X130721815Y-87437546D01*
X130690385Y-87470825D01*
X130647573Y-87501929D01*
X130647567Y-87501934D01*
X130501930Y-87647571D01*
X130501926Y-87647576D01*
X130380873Y-87814193D01*
X130287367Y-87997705D01*
X130223719Y-88193591D01*
X130191500Y-88397019D01*
X130191500Y-88602980D01*
X130223719Y-88806408D01*
X130287367Y-89002294D01*
X130380873Y-89185806D01*
X130501926Y-89352423D01*
X130501930Y-89352428D01*
X130647571Y-89498069D01*
X130647576Y-89498073D01*
X130792908Y-89603661D01*
X130814197Y-89619129D01*
X130931128Y-89678709D01*
X130997705Y-89712632D01*
X130997707Y-89712632D01*
X130997710Y-89712634D01*
X131102707Y-89746749D01*
X131193591Y-89776280D01*
X131295305Y-89792390D01*
X131397019Y-89808500D01*
X131397020Y-89808500D01*
X131602980Y-89808500D01*
X131602981Y-89808500D01*
X131806408Y-89776280D01*
X132002290Y-89712634D01*
X132185803Y-89619129D01*
X132352430Y-89498068D01*
X132498068Y-89352430D01*
X132529175Y-89309615D01*
X132533506Y-89306274D01*
X132535780Y-89301297D01*
X132560882Y-89285164D01*
X132584505Y-89266949D01*
X132591176Y-89265696D01*
X132594558Y-89263523D01*
X132629493Y-89258500D01*
X132634457Y-89258500D01*
X132701496Y-89278185D01*
X132722138Y-89294819D01*
X137096481Y-93669163D01*
X137096485Y-93669166D01*
X137220708Y-93752170D01*
X137220721Y-93752177D01*
X137303537Y-93786480D01*
X137358753Y-93809351D01*
X137391253Y-93815815D01*
X137431970Y-93823915D01*
X137431997Y-93823919D01*
X137432024Y-93823925D01*
X137505294Y-93838500D01*
X137505295Y-93838500D01*
X137654705Y-93838500D01*
X139370507Y-93838500D01*
X139437546Y-93858185D01*
X139470825Y-93889615D01*
X139501929Y-93932426D01*
X139501934Y-93932432D01*
X139647571Y-94078069D01*
X139647576Y-94078073D01*
X139792908Y-94183661D01*
X139814197Y-94199129D01*
X139931128Y-94258709D01*
X139997705Y-94292632D01*
X139997707Y-94292632D01*
X139997710Y-94292634D01*
X140102707Y-94326749D01*
X140193591Y-94356280D01*
X140295305Y-94372390D01*
X140397019Y-94388500D01*
X140397020Y-94388500D01*
X140602980Y-94388500D01*
X140602981Y-94388500D01*
X140806408Y-94356280D01*
X141002290Y-94292634D01*
X141185803Y-94199129D01*
X141352430Y-94078068D01*
X141498068Y-93932430D01*
X141619129Y-93765803D01*
X141712634Y-93582290D01*
X141776280Y-93386408D01*
X141808500Y-93182981D01*
X141808500Y-92977019D01*
X141776280Y-92773592D01*
X141712634Y-92577710D01*
X141712632Y-92577707D01*
X141712632Y-92577705D01*
X141676076Y-92505961D01*
X141619129Y-92394197D01*
X141566312Y-92321500D01*
X141498073Y-92227576D01*
X141498069Y-92227571D01*
X141352428Y-92081930D01*
X141352423Y-92081926D01*
X141185806Y-91960873D01*
X141185805Y-91960872D01*
X141185803Y-91960871D01*
X141115970Y-91925289D01*
X141002294Y-91867367D01*
X140806408Y-91803719D01*
X140630794Y-91775905D01*
X140602981Y-91771500D01*
X140397019Y-91771500D01*
X140372550Y-91775375D01*
X140193591Y-91803719D01*
X139997705Y-91867367D01*
X139814193Y-91960873D01*
X139647576Y-92081926D01*
X139647571Y-92081930D01*
X139501934Y-92227567D01*
X139501929Y-92227573D01*
X139470825Y-92270385D01*
X139415495Y-92313051D01*
X139370507Y-92321500D01*
X137945543Y-92321500D01*
X137878504Y-92301815D01*
X137857862Y-92285181D01*
X133483518Y-87910836D01*
X133483517Y-87910835D01*
X133421399Y-87869330D01*
X133359284Y-87827826D01*
X133221247Y-87770649D01*
X133221239Y-87770647D01*
X133147976Y-87756074D01*
X133074709Y-87741500D01*
X133074706Y-87741500D01*
X132629493Y-87741500D01*
X132562454Y-87721815D01*
X132529175Y-87690385D01*
X132498070Y-87647573D01*
X132498068Y-87647570D01*
X132352430Y-87501932D01*
X132309615Y-87470825D01*
X132266949Y-87415495D01*
X132258500Y-87370507D01*
X132258500Y-82817019D01*
X139191500Y-82817019D01*
X139191500Y-83022980D01*
X139223719Y-83226408D01*
X139287367Y-83422294D01*
X139380873Y-83605806D01*
X139501926Y-83772423D01*
X139501930Y-83772428D01*
X139647571Y-83918069D01*
X139647576Y-83918073D01*
X139748641Y-83991500D01*
X139814197Y-84039129D01*
X139931128Y-84098709D01*
X139997705Y-84132632D01*
X139997707Y-84132632D01*
X139997710Y-84132634D01*
X140102707Y-84166749D01*
X140193591Y-84196280D01*
X140279048Y-84209815D01*
X140397019Y-84228500D01*
X140397020Y-84228500D01*
X140602980Y-84228500D01*
X140602981Y-84228500D01*
X140806408Y-84196280D01*
X141002290Y-84132634D01*
X141185803Y-84039129D01*
X141352430Y-83918068D01*
X141498068Y-83772430D01*
X141529175Y-83729615D01*
X141584505Y-83686949D01*
X141629493Y-83678500D01*
X154054457Y-83678500D01*
X154121496Y-83698185D01*
X154142138Y-83714819D01*
X156990180Y-86562861D01*
X157023665Y-86624184D01*
X157024972Y-86669940D01*
X156991500Y-86881272D01*
X156991500Y-87118727D01*
X157024972Y-87330058D01*
X157016018Y-87399351D01*
X156990180Y-87437137D01*
X151961394Y-92465925D01*
X150316484Y-94110835D01*
X150263658Y-94163660D01*
X150210833Y-94216485D01*
X150127829Y-94340709D01*
X150127822Y-94340722D01*
X150070650Y-94478749D01*
X150070647Y-94478759D01*
X150041500Y-94625291D01*
X150041500Y-95977500D01*
X150021815Y-96044539D01*
X149969011Y-96090294D01*
X149917500Y-96101500D01*
X149901345Y-96101500D01*
X149840797Y-96108011D01*
X149840795Y-96108011D01*
X149703795Y-96159111D01*
X149586739Y-96246739D01*
X149499111Y-96363795D01*
X149448011Y-96500795D01*
X149448011Y-96500797D01*
X149441500Y-96561345D01*
X149441500Y-98358654D01*
X149448011Y-98419202D01*
X149448011Y-98419204D01*
X149479138Y-98502656D01*
X149499111Y-98556204D01*
X149586739Y-98673261D01*
X149703796Y-98760889D01*
X149840799Y-98811989D01*
X149868050Y-98814918D01*
X149901345Y-98818499D01*
X149901362Y-98818500D01*
X151698638Y-98818500D01*
X151698654Y-98818499D01*
X151725692Y-98815591D01*
X151759201Y-98811989D01*
X151896204Y-98760889D01*
X152013261Y-98673261D01*
X152100889Y-98556204D01*
X152145957Y-98435371D01*
X152187827Y-98379442D01*
X152253291Y-98355025D01*
X152321564Y-98369877D01*
X152349818Y-98391028D01*
X152454996Y-98496206D01*
X152627991Y-98621894D01*
X152721438Y-98669507D01*
X152818516Y-98718972D01*
X152818519Y-98718973D01*
X152920200Y-98752010D01*
X153021884Y-98785049D01*
X153233084Y-98818500D01*
X153233085Y-98818500D01*
X153446915Y-98818500D01*
X153446916Y-98818500D01*
X153658116Y-98785049D01*
X153861483Y-98718972D01*
X154052009Y-98621894D01*
X154225004Y-98496206D01*
X154376206Y-98345004D01*
X154501894Y-98172009D01*
X154501896Y-98172004D01*
X154504270Y-98168132D01*
X154556080Y-98121254D01*
X154625009Y-98109829D01*
X154689173Y-98137483D01*
X154715730Y-98168132D01*
X154718103Y-98172005D01*
X154718105Y-98172008D01*
X154718106Y-98172009D01*
X154843794Y-98345004D01*
X154994996Y-98496206D01*
X155167991Y-98621894D01*
X155261438Y-98669507D01*
X155358516Y-98718972D01*
X155358519Y-98718973D01*
X155460200Y-98752010D01*
X155561884Y-98785049D01*
X155773084Y-98818500D01*
X155773085Y-98818500D01*
X155986915Y-98818500D01*
X155986916Y-98818500D01*
X156198116Y-98785049D01*
X156401483Y-98718972D01*
X156592009Y-98621894D01*
X156765004Y-98496206D01*
X156916206Y-98345004D01*
X157041894Y-98172009D01*
X157041896Y-98172004D01*
X157044270Y-98168132D01*
X157096080Y-98121254D01*
X157165009Y-98109829D01*
X157229173Y-98137483D01*
X157255730Y-98168132D01*
X157258103Y-98172005D01*
X157258105Y-98172008D01*
X157258106Y-98172009D01*
X157383794Y-98345004D01*
X157534996Y-98496206D01*
X157707991Y-98621894D01*
X157801438Y-98669507D01*
X157898516Y-98718972D01*
X157898519Y-98718973D01*
X158000200Y-98752010D01*
X158101884Y-98785049D01*
X158313084Y-98818500D01*
X158313085Y-98818500D01*
X158526915Y-98818500D01*
X158526916Y-98818500D01*
X158738116Y-98785049D01*
X158941483Y-98718972D01*
X159132009Y-98621894D01*
X159305004Y-98496206D01*
X159456206Y-98345004D01*
X159581894Y-98172009D01*
X159581896Y-98172004D01*
X159584270Y-98168132D01*
X159636080Y-98121254D01*
X159705009Y-98109829D01*
X159769173Y-98137483D01*
X159795730Y-98168132D01*
X159798103Y-98172005D01*
X159798105Y-98172008D01*
X159798106Y-98172009D01*
X159923794Y-98345004D01*
X160074996Y-98496206D01*
X160247991Y-98621894D01*
X160341438Y-98669507D01*
X160438516Y-98718972D01*
X160438519Y-98718973D01*
X160540200Y-98752010D01*
X160641884Y-98785049D01*
X160853084Y-98818500D01*
X160853085Y-98818500D01*
X161066915Y-98818500D01*
X161066916Y-98818500D01*
X161278116Y-98785049D01*
X161481483Y-98718972D01*
X161672009Y-98621894D01*
X161845004Y-98496206D01*
X161996206Y-98345004D01*
X162121894Y-98172009D01*
X162121896Y-98172004D01*
X162124270Y-98168132D01*
X162176080Y-98121254D01*
X162245009Y-98109829D01*
X162309173Y-98137483D01*
X162335730Y-98168132D01*
X162338103Y-98172005D01*
X162338105Y-98172008D01*
X162338106Y-98172009D01*
X162463794Y-98345004D01*
X162614996Y-98496206D01*
X162787991Y-98621894D01*
X162881438Y-98669507D01*
X162978516Y-98718972D01*
X162978519Y-98718973D01*
X163080200Y-98752010D01*
X163181884Y-98785049D01*
X163393084Y-98818500D01*
X163393085Y-98818500D01*
X163606915Y-98818500D01*
X163606916Y-98818500D01*
X163818116Y-98785049D01*
X164021483Y-98718972D01*
X164212009Y-98621894D01*
X164385004Y-98496206D01*
X164536206Y-98345004D01*
X164661894Y-98172009D01*
X164758972Y-97981483D01*
X164825049Y-97778116D01*
X164858500Y-97566916D01*
X164858500Y-97353084D01*
X164825049Y-97141884D01*
X164758972Y-96938517D01*
X164758972Y-96938516D01*
X164703495Y-96829638D01*
X164661894Y-96747991D01*
X164536206Y-96574996D01*
X164385004Y-96423794D01*
X164212009Y-96298106D01*
X164210137Y-96297152D01*
X164021483Y-96201027D01*
X164021480Y-96201026D01*
X163818117Y-96134951D01*
X163712516Y-96118225D01*
X163606916Y-96101500D01*
X163393084Y-96101500D01*
X163322684Y-96112650D01*
X163181882Y-96134951D01*
X162978519Y-96201026D01*
X162978516Y-96201027D01*
X162787990Y-96298106D01*
X162614993Y-96423796D01*
X162463796Y-96574993D01*
X162338105Y-96747991D01*
X162335727Y-96751873D01*
X162283914Y-96798748D01*
X162214984Y-96810169D01*
X162150822Y-96782512D01*
X162124273Y-96751873D01*
X162121894Y-96747991D01*
X162029742Y-96621155D01*
X161996206Y-96574996D01*
X161845004Y-96423794D01*
X161672009Y-96298106D01*
X161670137Y-96297152D01*
X161481483Y-96201027D01*
X161481480Y-96201026D01*
X161278117Y-96134951D01*
X161172516Y-96118225D01*
X161066916Y-96101500D01*
X160853084Y-96101500D01*
X160782684Y-96112650D01*
X160641882Y-96134951D01*
X160438519Y-96201026D01*
X160438516Y-96201027D01*
X160247990Y-96298106D01*
X160074993Y-96423796D01*
X159923796Y-96574993D01*
X159798105Y-96747991D01*
X159795727Y-96751873D01*
X159743914Y-96798748D01*
X159674984Y-96810169D01*
X159610822Y-96782512D01*
X159584273Y-96751873D01*
X159581894Y-96747991D01*
X159489742Y-96621155D01*
X159456206Y-96574996D01*
X159305004Y-96423794D01*
X159132009Y-96298106D01*
X159130137Y-96297152D01*
X158941483Y-96201027D01*
X158941480Y-96201026D01*
X158738117Y-96134951D01*
X158632516Y-96118225D01*
X158526916Y-96101500D01*
X158313084Y-96101500D01*
X158242684Y-96112650D01*
X158101882Y-96134951D01*
X157898519Y-96201026D01*
X157898516Y-96201027D01*
X157707990Y-96298106D01*
X157534993Y-96423796D01*
X157383796Y-96574993D01*
X157258105Y-96747991D01*
X157255727Y-96751873D01*
X157203914Y-96798748D01*
X157134984Y-96810169D01*
X157070822Y-96782512D01*
X157044273Y-96751873D01*
X157041894Y-96747991D01*
X156949742Y-96621155D01*
X156916206Y-96574996D01*
X156765004Y-96423794D01*
X156592009Y-96298106D01*
X156590137Y-96297152D01*
X156401483Y-96201027D01*
X156401480Y-96201026D01*
X156198117Y-96134951D01*
X156092516Y-96118225D01*
X155986916Y-96101500D01*
X155773084Y-96101500D01*
X155702684Y-96112650D01*
X155561882Y-96134951D01*
X155358519Y-96201026D01*
X155358516Y-96201027D01*
X155167990Y-96298106D01*
X154994993Y-96423796D01*
X154843796Y-96574993D01*
X154718105Y-96747991D01*
X154715727Y-96751873D01*
X154663914Y-96798748D01*
X154594984Y-96810169D01*
X154530822Y-96782512D01*
X154504273Y-96751873D01*
X154501894Y-96747991D01*
X154409742Y-96621155D01*
X154376206Y-96574996D01*
X154225004Y-96423794D01*
X154052009Y-96298106D01*
X154050137Y-96297152D01*
X153861483Y-96201027D01*
X153861480Y-96201026D01*
X153658117Y-96134951D01*
X153552516Y-96118225D01*
X153446916Y-96101500D01*
X153233084Y-96101500D01*
X153162684Y-96112650D01*
X153021882Y-96134951D01*
X152818519Y-96201026D01*
X152818516Y-96201027D01*
X152627990Y-96298106D01*
X152454997Y-96423793D01*
X152349818Y-96528972D01*
X152288495Y-96562456D01*
X152218803Y-96557472D01*
X152162870Y-96515600D01*
X152145958Y-96484629D01*
X152100889Y-96363796D01*
X152013261Y-96246739D01*
X151896204Y-96159111D01*
X151759203Y-96108011D01*
X151698654Y-96101500D01*
X151698638Y-96101500D01*
X151682500Y-96101500D01*
X151615461Y-96081815D01*
X151569706Y-96029011D01*
X151558500Y-95977500D01*
X151558500Y-95065542D01*
X151578185Y-94998503D01*
X151594814Y-94977866D01*
X154690733Y-91881947D01*
X157000000Y-91881947D01*
X157000000Y-92118052D01*
X157036934Y-92351247D01*
X157109897Y-92575802D01*
X157217087Y-92786174D01*
X157277338Y-92869104D01*
X157277340Y-92869105D01*
X158017037Y-92129408D01*
X158034075Y-92192993D01*
X158099901Y-92307007D01*
X158192993Y-92400099D01*
X158307007Y-92465925D01*
X158370590Y-92482962D01*
X157630893Y-93222658D01*
X157713828Y-93282914D01*
X157924197Y-93390102D01*
X158148752Y-93463065D01*
X158148751Y-93463065D01*
X158381948Y-93500000D01*
X158618052Y-93500000D01*
X158851247Y-93463065D01*
X159075802Y-93390102D01*
X159286163Y-93282918D01*
X159286169Y-93282914D01*
X159369104Y-93222658D01*
X159369105Y-93222658D01*
X158629408Y-92482962D01*
X158692993Y-92465925D01*
X158807007Y-92400099D01*
X158900099Y-92307007D01*
X158965925Y-92192993D01*
X158982962Y-92129409D01*
X159722658Y-92869105D01*
X159722658Y-92869104D01*
X159782914Y-92786169D01*
X159782918Y-92786163D01*
X159890102Y-92575802D01*
X159963065Y-92351247D01*
X159978462Y-92254038D01*
X164439500Y-92254038D01*
X164439500Y-92505961D01*
X164478910Y-92754785D01*
X164556760Y-92994383D01*
X164635413Y-93148747D01*
X164652856Y-93182981D01*
X164671132Y-93218848D01*
X164819201Y-93422649D01*
X164819205Y-93422654D01*
X164997345Y-93600794D01*
X164997350Y-93600798D01*
X165175117Y-93729952D01*
X165201155Y-93748870D01*
X165319852Y-93809349D01*
X165425616Y-93863239D01*
X165425618Y-93863239D01*
X165425621Y-93863241D01*
X165665215Y-93941090D01*
X165914038Y-93980500D01*
X165914039Y-93980500D01*
X166165961Y-93980500D01*
X166165962Y-93980500D01*
X166414785Y-93941090D01*
X166654379Y-93863241D01*
X166878845Y-93748870D01*
X167082656Y-93600793D01*
X167260793Y-93422656D01*
X167408870Y-93218845D01*
X167523241Y-92994379D01*
X167601090Y-92754785D01*
X167640500Y-92505962D01*
X167640500Y-92254038D01*
X167601090Y-92005215D01*
X167523241Y-91765621D01*
X167523239Y-91765618D01*
X167523239Y-91765616D01*
X167459599Y-91640716D01*
X167408870Y-91541155D01*
X167378969Y-91500000D01*
X167260798Y-91337350D01*
X167260794Y-91337345D01*
X167082654Y-91159205D01*
X167082649Y-91159201D01*
X166878848Y-91011132D01*
X166878847Y-91011131D01*
X166878845Y-91011130D01*
X166808747Y-90975413D01*
X166654383Y-90896760D01*
X166414785Y-90818910D01*
X166165962Y-90779500D01*
X165914038Y-90779500D01*
X165789626Y-90799205D01*
X165665214Y-90818910D01*
X165425616Y-90896760D01*
X165201151Y-91011132D01*
X164997350Y-91159201D01*
X164997345Y-91159205D01*
X164819205Y-91337345D01*
X164819201Y-91337350D01*
X164671132Y-91541151D01*
X164556760Y-91765616D01*
X164478910Y-92005214D01*
X164439500Y-92254038D01*
X159978462Y-92254038D01*
X159982306Y-92229768D01*
X160000000Y-92118052D01*
X160000000Y-91881947D01*
X159963065Y-91648752D01*
X159890102Y-91424197D01*
X159782914Y-91213828D01*
X159722658Y-91130894D01*
X159722658Y-91130893D01*
X158982962Y-91870590D01*
X158965925Y-91807007D01*
X158900099Y-91692993D01*
X158807007Y-91599901D01*
X158692993Y-91534075D01*
X158629409Y-91517037D01*
X159369105Y-90777340D01*
X159369104Y-90777338D01*
X159286174Y-90717087D01*
X159075802Y-90609897D01*
X158851247Y-90536934D01*
X158851248Y-90536934D01*
X158618052Y-90500000D01*
X158381948Y-90500000D01*
X158148752Y-90536934D01*
X157924197Y-90609897D01*
X157713830Y-90717084D01*
X157630894Y-90777340D01*
X158370591Y-91517037D01*
X158307007Y-91534075D01*
X158192993Y-91599901D01*
X158099901Y-91692993D01*
X158034075Y-91807007D01*
X158017037Y-91870590D01*
X157277340Y-91130894D01*
X157217084Y-91213830D01*
X157109897Y-91424197D01*
X157036934Y-91648752D01*
X157000000Y-91881947D01*
X154690733Y-91881947D01*
X158062862Y-88509817D01*
X158124183Y-88476334D01*
X158169937Y-88475027D01*
X158232822Y-88484987D01*
X158381273Y-88508500D01*
X158381278Y-88508500D01*
X158618727Y-88508500D01*
X158853241Y-88471356D01*
X159079063Y-88397982D01*
X159290627Y-88290185D01*
X159482722Y-88150620D01*
X159650620Y-87982722D01*
X159790185Y-87790627D01*
X159897982Y-87579063D01*
X159971356Y-87353241D01*
X159982444Y-87283233D01*
X160008500Y-87118727D01*
X160008500Y-86881272D01*
X159971356Y-86646758D01*
X159918057Y-86482722D01*
X159897982Y-86420937D01*
X159897980Y-86420934D01*
X159897980Y-86420932D01*
X159790184Y-86209372D01*
X159695509Y-86079063D01*
X159650620Y-86017278D01*
X159482722Y-85849380D01*
X159290627Y-85709815D01*
X159241020Y-85684539D01*
X159079067Y-85602019D01*
X158853241Y-85528643D01*
X158618727Y-85491500D01*
X158618722Y-85491500D01*
X158381278Y-85491500D01*
X158381273Y-85491500D01*
X158169940Y-85524972D01*
X158100647Y-85516017D01*
X158062861Y-85490180D01*
X154903518Y-82330836D01*
X154903517Y-82330835D01*
X154832058Y-82283088D01*
X154779284Y-82247826D01*
X154641247Y-82190649D01*
X154641239Y-82190647D01*
X154567976Y-82176074D01*
X154494709Y-82161500D01*
X154494706Y-82161500D01*
X141629493Y-82161500D01*
X141562454Y-82141815D01*
X141529175Y-82110385D01*
X141498070Y-82067573D01*
X141498068Y-82067570D01*
X141352430Y-81921932D01*
X141352428Y-81921930D01*
X141352423Y-81921926D01*
X141185806Y-81800873D01*
X141185805Y-81800872D01*
X141185803Y-81800871D01*
X141128496Y-81771671D01*
X141002294Y-81707367D01*
X140806408Y-81643719D01*
X140630794Y-81615905D01*
X140602981Y-81611500D01*
X140397019Y-81611500D01*
X140372550Y-81615375D01*
X140193591Y-81643719D01*
X139997705Y-81707367D01*
X139814193Y-81800873D01*
X139647576Y-81921926D01*
X139647571Y-81921930D01*
X139501930Y-82067571D01*
X139501926Y-82067576D01*
X139380873Y-82234193D01*
X139287367Y-82417705D01*
X139223719Y-82613591D01*
X139191500Y-82817019D01*
X132258500Y-82817019D01*
X132258500Y-80709493D01*
X132278185Y-80642454D01*
X132309615Y-80609175D01*
X132352426Y-80578071D01*
X132352426Y-80578070D01*
X132352430Y-80578068D01*
X132498068Y-80432430D01*
X132619129Y-80265803D01*
X132712634Y-80082290D01*
X132776280Y-79886408D01*
X132808500Y-79682981D01*
X132808500Y-79477019D01*
X132776280Y-79273592D01*
X132712634Y-79077710D01*
X132712632Y-79077707D01*
X132712632Y-79077705D01*
X132676013Y-79005838D01*
X132619129Y-78894197D01*
X132535070Y-78778499D01*
X132498073Y-78727576D01*
X132498069Y-78727571D01*
X132352432Y-78581934D01*
X132352426Y-78581929D01*
X132309615Y-78550825D01*
X132266949Y-78495495D01*
X132258500Y-78450507D01*
X132258500Y-72165291D01*
X132229352Y-72018759D01*
X132229351Y-72018758D01*
X132229351Y-72018754D01*
X132201218Y-71950835D01*
X132172177Y-71880722D01*
X132172170Y-71880709D01*
X132089166Y-71756485D01*
X132089165Y-71756484D01*
X131983516Y-71650835D01*
X131267833Y-70935152D01*
X131234348Y-70873829D01*
X131239332Y-70804137D01*
X131281204Y-70748204D01*
X131346668Y-70723787D01*
X131374906Y-70724997D01*
X131397019Y-70728500D01*
X131397022Y-70728500D01*
X131602980Y-70728500D01*
X131602981Y-70728500D01*
X131806408Y-70696280D01*
X132002290Y-70632634D01*
X132185803Y-70539129D01*
X132352430Y-70418068D01*
X132498068Y-70272430D01*
X132529175Y-70229615D01*
X132584505Y-70186949D01*
X132629493Y-70178500D01*
X137949457Y-70178500D01*
X138016496Y-70198185D01*
X138062251Y-70250989D01*
X138072195Y-70320147D01*
X138043170Y-70383703D01*
X138037138Y-70390181D01*
X136476484Y-71950835D01*
X136423658Y-72003660D01*
X136370833Y-72056485D01*
X136287829Y-72180709D01*
X136287822Y-72180722D01*
X136230650Y-72318749D01*
X136230647Y-72318759D01*
X136201500Y-72465291D01*
X136201500Y-75097500D01*
X136181815Y-75164539D01*
X136129011Y-75210294D01*
X136077500Y-75221500D01*
X135911345Y-75221500D01*
X135850797Y-75228011D01*
X135850795Y-75228011D01*
X135713795Y-75279111D01*
X135596739Y-75366739D01*
X135509111Y-75483795D01*
X135458011Y-75620795D01*
X135458011Y-75620797D01*
X135451500Y-75681345D01*
X135451500Y-78318654D01*
X135458011Y-78379202D01*
X135458011Y-78379204D01*
X135501387Y-78495495D01*
X135509111Y-78516204D01*
X135596739Y-78633261D01*
X135713796Y-78720889D01*
X135850799Y-78771989D01*
X135878050Y-78774918D01*
X135911345Y-78778499D01*
X135911362Y-78778500D01*
X138008638Y-78778500D01*
X138008654Y-78778499D01*
X138035692Y-78775591D01*
X138069201Y-78771989D01*
X138206204Y-78720889D01*
X138323261Y-78633261D01*
X138410889Y-78516204D01*
X138410890Y-78516198D01*
X138414977Y-78508715D01*
X138464378Y-78459306D01*
X138532650Y-78444448D01*
X138596700Y-78467815D01*
X138713828Y-78552914D01*
X138924197Y-78660102D01*
X139148752Y-78733065D01*
X139148751Y-78733065D01*
X139381948Y-78770000D01*
X139618052Y-78770000D01*
X139851247Y-78733065D01*
X140075802Y-78660102D01*
X140286171Y-78552914D01*
X140477186Y-78414133D01*
X140518884Y-78372436D01*
X139629410Y-77482962D01*
X139692993Y-77465925D01*
X139807007Y-77400099D01*
X139900099Y-77307007D01*
X139965925Y-77192993D01*
X139982962Y-77129410D01*
X140591801Y-77738249D01*
X140622051Y-77787611D01*
X140642019Y-77849067D01*
X140749815Y-78060627D01*
X140889380Y-78252722D01*
X141057278Y-78420620D01*
X141249373Y-78560185D01*
X141292058Y-78581934D01*
X141460932Y-78667980D01*
X141460934Y-78667980D01*
X141460937Y-78667982D01*
X141581984Y-78707312D01*
X141686758Y-78741356D01*
X141921273Y-78778500D01*
X141921278Y-78778500D01*
X142158727Y-78778500D01*
X142393241Y-78741356D01*
X142435651Y-78727576D01*
X142619063Y-78667982D01*
X142830627Y-78560185D01*
X143022722Y-78420620D01*
X143190620Y-78252722D01*
X143209681Y-78226487D01*
X143265010Y-78183820D01*
X143334624Y-78177840D01*
X143396419Y-78210446D01*
X143410319Y-78226487D01*
X143429376Y-78252718D01*
X143429380Y-78252722D01*
X143597278Y-78420620D01*
X143789373Y-78560185D01*
X143832058Y-78581934D01*
X144000932Y-78667980D01*
X144000934Y-78667980D01*
X144000937Y-78667982D01*
X144121984Y-78707312D01*
X144226758Y-78741356D01*
X144461273Y-78778500D01*
X144461278Y-78778500D01*
X144698727Y-78778500D01*
X144933241Y-78741356D01*
X144975651Y-78727576D01*
X145159063Y-78667982D01*
X145370627Y-78560185D01*
X145562722Y-78420620D01*
X145730620Y-78252722D01*
X145870185Y-78060627D01*
X145977982Y-77849063D01*
X145979569Y-77844177D01*
X146019009Y-77786504D01*
X146083369Y-77759308D01*
X146097499Y-77758500D01*
X151042250Y-77758500D01*
X151115520Y-77743925D01*
X151115521Y-77743925D01*
X151144056Y-77738249D01*
X151188791Y-77729351D01*
X151326828Y-77672174D01*
X151451059Y-77589166D01*
X164089165Y-64951060D01*
X164145814Y-64866279D01*
X164172174Y-64826828D01*
X164219276Y-64713114D01*
X164228480Y-64690891D01*
X164229929Y-64687870D01*
X164251129Y-64664300D01*
X164271029Y-64639605D01*
X164274329Y-64638506D01*
X164276654Y-64635922D01*
X164307233Y-64627554D01*
X164337323Y-64617539D01*
X164340691Y-64618398D01*
X164344046Y-64617481D01*
X164374301Y-64626976D01*
X164405023Y-64634817D01*
X164407392Y-64637361D01*
X164410710Y-64638403D01*
X164431032Y-64662752D01*
X164452634Y-64685954D01*
X164454032Y-64690310D01*
X164455480Y-64692045D01*
X164456047Y-64696589D01*
X164464224Y-64722062D01*
X164478910Y-64814785D01*
X164556760Y-65054383D01*
X164671132Y-65278848D01*
X164819201Y-65482649D01*
X164819205Y-65482654D01*
X164997345Y-65660794D01*
X164997350Y-65660798D01*
X165151730Y-65772961D01*
X165201155Y-65808870D01*
X165344184Y-65881747D01*
X165425616Y-65923239D01*
X165425618Y-65923239D01*
X165425621Y-65923241D01*
X165665215Y-66001090D01*
X165914038Y-66040500D01*
X165914039Y-66040500D01*
X166165961Y-66040500D01*
X166165962Y-66040500D01*
X166414785Y-66001090D01*
X166654379Y-65923241D01*
X166878845Y-65808870D01*
X167082656Y-65660793D01*
X167260793Y-65482656D01*
X167408870Y-65278845D01*
X167523241Y-65054379D01*
X167601090Y-64814785D01*
X167640500Y-64565962D01*
X167640500Y-64314038D01*
X167601090Y-64065215D01*
X167523241Y-63825621D01*
X167523239Y-63825618D01*
X167523239Y-63825616D01*
X167456265Y-63694174D01*
X167408870Y-63601155D01*
X167384060Y-63567007D01*
X167260798Y-63397350D01*
X167260794Y-63397345D01*
X167082653Y-63219204D01*
X167082649Y-63219201D01*
X166878848Y-63071132D01*
X166878847Y-63071131D01*
X166878845Y-63071130D01*
X166808747Y-63035413D01*
X166654383Y-62956760D01*
X166414785Y-62878910D01*
X166165962Y-62839500D01*
X165914038Y-62839500D01*
X165789626Y-62859205D01*
X165665214Y-62878910D01*
X165425616Y-62956760D01*
X165201151Y-63071132D01*
X164997350Y-63219201D01*
X164997347Y-63219204D01*
X164819205Y-63397345D01*
X164819201Y-63397350D01*
X164671132Y-63601151D01*
X164556760Y-63825616D01*
X164500431Y-63998980D01*
X164460993Y-64056655D01*
X164396634Y-64083853D01*
X164327788Y-64071938D01*
X164276312Y-64024694D01*
X164258500Y-63960661D01*
X164258500Y-50391297D01*
X164278185Y-50324258D01*
X164309616Y-50290978D01*
X164330187Y-50276033D01*
X164385004Y-50236206D01*
X164536206Y-50085004D01*
X164661894Y-49912009D01*
X164758972Y-49721483D01*
X164825049Y-49518116D01*
X164858500Y-49306916D01*
X164858500Y-49093084D01*
X164825049Y-48881884D01*
X164782561Y-48751116D01*
X164758973Y-48678519D01*
X164758972Y-48678516D01*
X164709507Y-48581438D01*
X164661894Y-48487991D01*
X164536206Y-48314996D01*
X164385004Y-48163794D01*
X164212009Y-48038106D01*
X164021483Y-47941027D01*
X164021480Y-47941026D01*
X163818117Y-47874951D01*
X163712516Y-47858225D01*
X163606916Y-47841500D01*
X163393084Y-47841500D01*
X163322684Y-47852650D01*
X163181882Y-47874951D01*
X162978519Y-47941026D01*
X162978516Y-47941027D01*
X162787990Y-48038106D01*
X162614993Y-48163796D01*
X162463796Y-48314993D01*
X162338105Y-48487991D01*
X162335727Y-48491873D01*
X162283914Y-48538748D01*
X162214984Y-48550169D01*
X162150822Y-48522512D01*
X162124273Y-48491873D01*
X162121894Y-48487991D01*
X162085778Y-48438282D01*
X161996206Y-48314996D01*
X161845004Y-48163794D01*
X161672009Y-48038106D01*
X161481483Y-47941027D01*
X161481480Y-47941026D01*
X161278117Y-47874951D01*
X161172516Y-47858225D01*
X161066916Y-47841500D01*
X160853084Y-47841500D01*
X160782684Y-47852650D01*
X160641882Y-47874951D01*
X160438519Y-47941026D01*
X160438516Y-47941027D01*
X160247990Y-48038106D01*
X160074993Y-48163796D01*
X159923796Y-48314993D01*
X159798105Y-48487991D01*
X159795727Y-48491873D01*
X159743914Y-48538748D01*
X159674984Y-48550169D01*
X159610822Y-48522512D01*
X159584273Y-48491873D01*
X159581894Y-48487991D01*
X159545778Y-48438282D01*
X159456206Y-48314996D01*
X159305004Y-48163794D01*
X159132009Y-48038106D01*
X158941483Y-47941027D01*
X158941480Y-47941026D01*
X158738117Y-47874951D01*
X158632516Y-47858225D01*
X158526916Y-47841500D01*
X158313084Y-47841500D01*
X158242684Y-47852650D01*
X158101882Y-47874951D01*
X157898519Y-47941026D01*
X157898516Y-47941027D01*
X157707990Y-48038106D01*
X157534993Y-48163796D01*
X157383796Y-48314993D01*
X157258105Y-48487991D01*
X157255727Y-48491873D01*
X157203914Y-48538748D01*
X157134984Y-48550169D01*
X157070822Y-48522512D01*
X157044273Y-48491873D01*
X157041894Y-48487991D01*
X157005778Y-48438282D01*
X156916206Y-48314996D01*
X156765004Y-48163794D01*
X156592009Y-48038106D01*
X156401483Y-47941027D01*
X156401480Y-47941026D01*
X156198117Y-47874951D01*
X156092516Y-47858225D01*
X155986916Y-47841500D01*
X155773084Y-47841500D01*
X155702684Y-47852650D01*
X155561882Y-47874951D01*
X155358519Y-47941026D01*
X155358516Y-47941027D01*
X155167990Y-48038106D01*
X154994993Y-48163796D01*
X154843796Y-48314993D01*
X154718105Y-48487991D01*
X154715727Y-48491873D01*
X154663914Y-48538748D01*
X154594984Y-48550169D01*
X154530822Y-48522512D01*
X154504273Y-48491873D01*
X154501894Y-48487991D01*
X154465778Y-48438282D01*
X154376206Y-48314996D01*
X154225004Y-48163794D01*
X154052009Y-48038106D01*
X153861483Y-47941027D01*
X153861480Y-47941026D01*
X153658117Y-47874951D01*
X153552516Y-47858225D01*
X153446916Y-47841500D01*
X153233084Y-47841500D01*
X153162684Y-47852650D01*
X153021882Y-47874951D01*
X152818519Y-47941026D01*
X152818516Y-47941027D01*
X152627990Y-48038106D01*
X152454993Y-48163796D01*
X152303796Y-48314993D01*
X152178105Y-48487991D01*
X152175727Y-48491873D01*
X152123914Y-48538748D01*
X152054984Y-48550169D01*
X151990822Y-48522512D01*
X151964273Y-48491873D01*
X151961894Y-48487991D01*
X151925778Y-48438282D01*
X151836206Y-48314996D01*
X151685004Y-48163794D01*
X151512009Y-48038106D01*
X151321483Y-47941027D01*
X151321480Y-47941026D01*
X151118117Y-47874951D01*
X151012516Y-47858225D01*
X150906916Y-47841500D01*
X150693084Y-47841500D01*
X150622684Y-47852650D01*
X150481882Y-47874951D01*
X150278519Y-47941026D01*
X150278516Y-47941027D01*
X150087990Y-48038106D01*
X149914993Y-48163796D01*
X149763796Y-48314993D01*
X149638105Y-48487991D01*
X149635727Y-48491873D01*
X149583914Y-48538748D01*
X149514984Y-48550169D01*
X149450822Y-48522512D01*
X149424273Y-48491873D01*
X149421894Y-48487991D01*
X149385778Y-48438282D01*
X149296206Y-48314996D01*
X149145004Y-48163794D01*
X148972009Y-48038106D01*
X148781483Y-47941027D01*
X148781480Y-47941026D01*
X148578117Y-47874951D01*
X148472516Y-47858225D01*
X148366916Y-47841500D01*
X148153084Y-47841500D01*
X148082684Y-47852650D01*
X147941882Y-47874951D01*
X147738519Y-47941026D01*
X147738516Y-47941027D01*
X147547990Y-48038106D01*
X147374997Y-48163793D01*
X147269818Y-48268972D01*
X147208495Y-48302456D01*
X147138803Y-48297472D01*
X147082870Y-48255600D01*
X147065958Y-48224629D01*
X147020889Y-48103796D01*
X147019467Y-48101897D01*
X146996999Y-48071883D01*
X146933261Y-47986739D01*
X146816204Y-47899111D01*
X146679203Y-47848011D01*
X146618654Y-47841500D01*
X146618638Y-47841500D01*
X144821362Y-47841500D01*
X144821345Y-47841500D01*
X144760797Y-47848011D01*
X144760795Y-47848011D01*
X144623795Y-47899111D01*
X144512339Y-47982547D01*
X144506739Y-47986739D01*
X144490299Y-48008701D01*
X144481767Y-48020098D01*
X144425833Y-48061969D01*
X144356141Y-48066953D01*
X144294818Y-48033468D01*
X144261334Y-47972144D01*
X144258500Y-47945787D01*
X144258500Y-46925291D01*
X144229352Y-46778759D01*
X144229351Y-46778758D01*
X144229351Y-46778754D01*
X144176406Y-46650932D01*
X144172177Y-46640722D01*
X144172170Y-46640709D01*
X144089165Y-46516484D01*
X144089162Y-46516480D01*
X143983519Y-46410837D01*
X143983515Y-46410834D01*
X143859290Y-46327829D01*
X143859277Y-46327822D01*
X143721250Y-46270650D01*
X143721240Y-46270647D01*
X143574708Y-46241500D01*
X143574706Y-46241500D01*
X134074706Y-46241500D01*
X133925294Y-46241500D01*
X133925292Y-46241500D01*
X133778759Y-46270647D01*
X133778749Y-46270650D01*
X133640722Y-46327822D01*
X133640709Y-46327829D01*
X133516484Y-46410834D01*
X133516480Y-46410837D01*
X133410837Y-46516480D01*
X133410834Y-46516484D01*
X133327829Y-46640709D01*
X133327822Y-46640722D01*
X133270650Y-46778749D01*
X133270647Y-46778759D01*
X133241500Y-46925291D01*
X133241500Y-48034858D01*
X133221815Y-48101897D01*
X133190387Y-48135174D01*
X133150996Y-48163794D01*
X133150994Y-48163796D01*
X133150993Y-48163796D01*
X132999796Y-48314993D01*
X132874105Y-48487991D01*
X132871727Y-48491873D01*
X132819914Y-48538748D01*
X132750984Y-48550169D01*
X132686822Y-48522512D01*
X132660273Y-48491873D01*
X132657894Y-48487991D01*
X132621778Y-48438282D01*
X132532206Y-48314996D01*
X132381004Y-48163794D01*
X132208009Y-48038106D01*
X132017483Y-47941027D01*
X132017480Y-47941026D01*
X131814117Y-47874951D01*
X131708516Y-47858225D01*
X131602916Y-47841500D01*
X131389084Y-47841500D01*
X131318684Y-47852650D01*
X131177882Y-47874951D01*
X130974519Y-47941026D01*
X130974516Y-47941027D01*
X130783990Y-48038106D01*
X130610993Y-48163796D01*
X130459796Y-48314993D01*
X130334105Y-48487991D01*
X130331727Y-48491873D01*
X130279914Y-48538748D01*
X130210984Y-48550169D01*
X130146822Y-48522512D01*
X130120273Y-48491873D01*
X130117894Y-48487991D01*
X130081778Y-48438282D01*
X129992206Y-48314996D01*
X129841004Y-48163794D01*
X129668009Y-48038106D01*
X129477483Y-47941027D01*
X129477480Y-47941026D01*
X129274117Y-47874951D01*
X129168516Y-47858225D01*
X129062916Y-47841500D01*
X128849084Y-47841500D01*
X128778684Y-47852650D01*
X128637882Y-47874951D01*
X128434519Y-47941026D01*
X128434516Y-47941027D01*
X128243990Y-48038106D01*
X128070993Y-48163796D01*
X127919796Y-48314993D01*
X127794103Y-48487994D01*
X127791709Y-48492693D01*
X127743731Y-48543485D01*
X127675908Y-48560275D01*
X127609775Y-48537732D01*
X127573804Y-48496215D01*
X127573171Y-48496604D01*
X127570826Y-48492778D01*
X127570743Y-48492682D01*
X127570624Y-48492449D01*
X127531270Y-48438282D01*
X127531269Y-48438282D01*
X126898962Y-49070590D01*
X126881925Y-49007007D01*
X126816099Y-48892993D01*
X126723007Y-48799901D01*
X126608993Y-48734075D01*
X126545409Y-48717037D01*
X127177716Y-48084728D01*
X127123550Y-48045375D01*
X126934217Y-47948904D01*
X126732129Y-47883242D01*
X126522246Y-47850000D01*
X126309754Y-47850000D01*
X126099872Y-47883242D01*
X126099869Y-47883242D01*
X125897782Y-47948904D01*
X125708439Y-48045380D01*
X125654282Y-48084727D01*
X125654282Y-48084728D01*
X126286591Y-48717037D01*
X126223007Y-48734075D01*
X126108993Y-48799901D01*
X126015901Y-48892993D01*
X125950075Y-49007007D01*
X125933037Y-49070591D01*
X125300728Y-48438282D01*
X125300727Y-48438282D01*
X125261380Y-48492440D01*
X125261374Y-48492449D01*
X125261246Y-48492702D01*
X125261172Y-48492780D01*
X125258838Y-48496590D01*
X125258036Y-48496099D01*
X125213264Y-48543490D01*
X125145441Y-48560275D01*
X125079309Y-48537728D01*
X125040283Y-48492680D01*
X125037894Y-48487991D01*
X124912206Y-48314996D01*
X124761004Y-48163794D01*
X124588009Y-48038106D01*
X124397483Y-47941027D01*
X124397480Y-47941026D01*
X124194117Y-47874951D01*
X124088516Y-47858225D01*
X123982916Y-47841500D01*
X123769084Y-47841500D01*
X123698684Y-47852650D01*
X123557882Y-47874951D01*
X123354519Y-47941026D01*
X123354516Y-47941027D01*
X123163990Y-48038106D01*
X122990993Y-48163796D01*
X122839796Y-48314993D01*
X122714105Y-48487991D01*
X122711727Y-48491873D01*
X122659914Y-48538748D01*
X122590984Y-48550169D01*
X122526822Y-48522512D01*
X122500273Y-48491873D01*
X122497894Y-48487991D01*
X122461778Y-48438282D01*
X122372206Y-48314996D01*
X122221004Y-48163794D01*
X122212128Y-48157345D01*
X122145613Y-48109018D01*
X122102948Y-48053688D01*
X122094500Y-48008701D01*
X122094500Y-47845664D01*
X122080683Y-47776207D01*
X122071363Y-47729351D01*
X122068858Y-47716759D01*
X122065352Y-47699131D01*
X122065351Y-47699125D01*
X122008174Y-47561088D01*
X121925166Y-47436857D01*
X121925164Y-47436854D01*
X118589145Y-44100835D01*
X118527027Y-44059330D01*
X118464912Y-44017826D01*
X118326875Y-43960649D01*
X118326867Y-43960647D01*
X118253604Y-43946074D01*
X118180337Y-43931500D01*
X118180334Y-43931500D01*
X111646707Y-43931500D01*
X111579668Y-43911815D01*
X111546389Y-43880385D01*
X111420622Y-43707281D01*
X111420617Y-43707275D01*
X111252724Y-43539382D01*
X111252722Y-43539380D01*
X111060627Y-43399815D01*
X110849067Y-43292019D01*
X110623241Y-43218643D01*
X110388727Y-43181500D01*
X110388722Y-43181500D01*
X109611278Y-43181500D01*
X109611273Y-43181500D01*
X109376758Y-43218643D01*
X109150932Y-43292019D01*
X108939372Y-43399815D01*
X108747275Y-43539382D01*
X108579382Y-43707275D01*
X108439815Y-43899372D01*
X108332019Y-44110932D01*
X108258643Y-44336758D01*
X108221500Y-44571272D01*
X108221500Y-44808727D01*
X108258643Y-45043241D01*
X108332019Y-45269067D01*
X108427750Y-45456949D01*
X108439815Y-45480627D01*
X108579380Y-45672722D01*
X108747278Y-45840620D01*
X108747284Y-45840624D01*
X108773515Y-45859683D01*
X108816181Y-45915013D01*
X108822159Y-45984626D01*
X108789553Y-46046421D01*
X108773515Y-46060317D01*
X108747284Y-46079375D01*
X108747275Y-46079382D01*
X108579382Y-46247275D01*
X108439815Y-46439372D01*
X108332019Y-46650932D01*
X108258643Y-46876758D01*
X108221500Y-47111272D01*
X108221500Y-47348727D01*
X108258643Y-47583241D01*
X108332019Y-47809067D01*
X108420412Y-47982547D01*
X108439815Y-48020627D01*
X108579380Y-48212722D01*
X108747278Y-48380620D01*
X108939373Y-48520185D01*
X108985102Y-48543485D01*
X109150936Y-48627982D01*
X109150942Y-48627984D01*
X109212386Y-48647948D01*
X109261750Y-48678198D01*
X109870589Y-49287037D01*
X109807007Y-49304075D01*
X109692993Y-49369901D01*
X109599901Y-49462993D01*
X109534075Y-49577007D01*
X109517037Y-49640589D01*
X108627564Y-48751116D01*
X108585866Y-48792813D01*
X108447085Y-48983828D01*
X108339897Y-49194197D01*
X108266934Y-49418752D01*
X108230000Y-49651947D01*
X108230000Y-49888052D01*
X108266934Y-50121247D01*
X108339897Y-50345802D01*
X108447085Y-50556171D01*
X108532184Y-50673299D01*
X108555664Y-50739106D01*
X108539839Y-50807160D01*
X108491293Y-50855017D01*
X108483797Y-50859109D01*
X108366739Y-50946739D01*
X108279111Y-51063795D01*
X108228011Y-51200795D01*
X108228011Y-51200797D01*
X108221500Y-51261345D01*
X108221500Y-53358654D01*
X108228011Y-53419202D01*
X108228011Y-53419204D01*
X108279111Y-53556204D01*
X108366739Y-53673261D01*
X108483796Y-53760889D01*
X108620799Y-53811989D01*
X108648050Y-53814918D01*
X108681345Y-53818499D01*
X108681362Y-53818500D01*
X111318638Y-53818500D01*
X111318654Y-53818499D01*
X111345692Y-53815591D01*
X111379201Y-53811989D01*
X111516204Y-53760889D01*
X111633261Y-53673261D01*
X111652954Y-53646953D01*
X111708887Y-53605082D01*
X111778579Y-53600098D01*
X111839899Y-53633580D01*
X111839902Y-53633583D01*
X114614651Y-56408332D01*
X114648136Y-56469655D01*
X114643152Y-56539347D01*
X114601280Y-56595280D01*
X114583265Y-56606498D01*
X114439372Y-56679815D01*
X114247275Y-56819382D01*
X114079382Y-56987275D01*
X114079375Y-56987284D01*
X114060317Y-57013515D01*
X114004987Y-57056181D01*
X113935374Y-57062159D01*
X113873579Y-57029553D01*
X113859683Y-57013515D01*
X113847416Y-56996633D01*
X113840620Y-56987278D01*
X113672722Y-56819380D01*
X113480627Y-56679815D01*
X113431346Y-56654705D01*
X113269067Y-56572019D01*
X113043241Y-56498643D01*
X112808727Y-56461500D01*
X112808722Y-56461500D01*
X112571278Y-56461500D01*
X112571273Y-56461500D01*
X112336758Y-56498643D01*
X112110932Y-56572019D01*
X111899372Y-56679815D01*
X111707275Y-56819382D01*
X111539382Y-56987275D01*
X111399815Y-57179372D01*
X111292019Y-57390932D01*
X111218643Y-57616758D01*
X111181500Y-57851272D01*
X111181500Y-58628727D01*
X111218643Y-58863241D01*
X111292019Y-59089067D01*
X111383446Y-59268501D01*
X111399815Y-59300627D01*
X111539380Y-59492722D01*
X111707278Y-59660620D01*
X111899373Y-59800185D01*
X111999328Y-59851114D01*
X112110932Y-59907980D01*
X112110934Y-59907980D01*
X112110937Y-59907982D01*
X112231984Y-59947312D01*
X112336758Y-59981356D01*
X112397849Y-59991032D01*
X112460984Y-60020961D01*
X112497915Y-60080273D01*
X112496917Y-60150135D01*
X112466132Y-60201186D01*
X108650836Y-64016481D01*
X108650835Y-64016482D01*
X108567828Y-64140712D01*
X108567824Y-64140720D01*
X108524093Y-64246297D01*
X108510650Y-64278749D01*
X108510647Y-64278759D01*
X108481500Y-64425291D01*
X108481500Y-78281010D01*
X108461815Y-78348049D01*
X108445181Y-78368691D01*
X104359836Y-82454035D01*
X104359835Y-82454036D01*
X104276828Y-82578266D01*
X104276824Y-82578273D01*
X104228034Y-82696064D01*
X104228033Y-82696067D01*
X104223748Y-82706413D01*
X104219649Y-82716308D01*
X104190500Y-82862848D01*
X100064568Y-82862848D01*
X100067091Y-73317682D01*
X105200000Y-73317682D01*
X105200000Y-73522317D01*
X105232009Y-73724417D01*
X105295244Y-73919031D01*
X105388141Y-74101350D01*
X105388147Y-74101359D01*
X105420523Y-74145921D01*
X105420524Y-74145922D01*
X106100000Y-73466446D01*
X106100000Y-73472661D01*
X106127259Y-73574394D01*
X106179920Y-73665606D01*
X106254394Y-73740080D01*
X106345606Y-73792741D01*
X106447339Y-73820000D01*
X106453553Y-73820000D01*
X105774076Y-74499474D01*
X105818650Y-74531859D01*
X106000968Y-74624755D01*
X106195582Y-74687990D01*
X106397683Y-74720000D01*
X106602317Y-74720000D01*
X106804417Y-74687990D01*
X106999031Y-74624755D01*
X107181349Y-74531859D01*
X107225921Y-74499474D01*
X106546447Y-73820000D01*
X106552661Y-73820000D01*
X106654394Y-73792741D01*
X106745606Y-73740080D01*
X106820080Y-73665606D01*
X106872741Y-73574394D01*
X106900000Y-73472661D01*
X106900000Y-73466447D01*
X107579474Y-74145921D01*
X107611859Y-74101349D01*
X107704755Y-73919031D01*
X107767990Y-73724417D01*
X107800000Y-73522317D01*
X107800000Y-73317682D01*
X107767990Y-73115582D01*
X107704755Y-72920968D01*
X107611859Y-72738650D01*
X107579474Y-72694077D01*
X107579474Y-72694076D01*
X106900000Y-73373551D01*
X106900000Y-73367339D01*
X106872741Y-73265606D01*
X106820080Y-73174394D01*
X106745606Y-73099920D01*
X106654394Y-73047259D01*
X106552661Y-73020000D01*
X106546446Y-73020000D01*
X107225922Y-72340524D01*
X107225921Y-72340523D01*
X107181359Y-72308147D01*
X107181350Y-72308141D01*
X106999031Y-72215244D01*
X106804417Y-72152009D01*
X106602317Y-72120000D01*
X106397683Y-72120000D01*
X106195582Y-72152009D01*
X106000968Y-72215244D01*
X105818644Y-72308143D01*
X105774077Y-72340523D01*
X105774077Y-72340524D01*
X106453554Y-73020000D01*
X106447339Y-73020000D01*
X106345606Y-73047259D01*
X106254394Y-73099920D01*
X106179920Y-73174394D01*
X106127259Y-73265606D01*
X106100000Y-73367339D01*
X106100000Y-73373553D01*
X105420524Y-72694077D01*
X105420523Y-72694077D01*
X105388143Y-72738644D01*
X105295244Y-72920968D01*
X105232009Y-73115582D01*
X105200000Y-73317682D01*
X100067091Y-73317682D01*
X100075487Y-41546098D01*
X100075494Y-41524537D01*
X100075500Y-41524531D01*
X100075500Y-41506053D01*
X100075502Y-41506045D01*
X100076097Y-41493938D01*
X100087494Y-41378222D01*
X100092234Y-41354389D01*
X100124216Y-41248959D01*
X100133508Y-41226526D01*
X100185442Y-41129365D01*
X100198938Y-41109166D01*
X100268827Y-41024006D01*
X100286006Y-41006827D01*
X100371166Y-40936938D01*
X100391365Y-40923442D01*
X100488526Y-40871508D01*
X100510959Y-40862216D01*
X100616389Y-40830234D01*
X100640217Y-40825494D01*
X100755680Y-40814121D01*
X100768330Y-40813526D01*
X163417539Y-41075155D01*
G37*
%TD.AperFunction*%
%TD*%
M02*
