%TF.GenerationSoftware,KiCad,Pcbnew,9.0.7*%
%TF.CreationDate,2026-03-06T11:08:02+01:00*%
%TF.ProjectId,Projet_capteur_pcb,50726f6a-6574-45f6-9361-70746575725f,rev?*%
%TF.SameCoordinates,Original*%
%TF.FileFunction,Soldermask,Bot*%
%TF.FilePolarity,Negative*%
%FSLAX46Y46*%
G04 Gerber Fmt 4.6, Leading zero omitted, Abs format (unit mm)*
G04 Created by KiCad (PCBNEW 9.0.7) date 2026-03-06 11:08:02*
%MOMM*%
%LPD*%
G01*
G04 APERTURE LIST*
%ADD10R,1.700000X1.700000*%
%ADD11C,1.700000*%
%ADD12C,1.600000*%
%ADD13R,2.000000X2.540000*%
%ADD14O,2.000000X2.540000*%
%ADD15R,2.000000X2.000000*%
%ADD16C,2.000000*%
%ADD17C,3.200000*%
%ADD18R,2.540000X2.000000*%
%ADD19O,2.540000X2.000000*%
G04 APERTURE END LIST*
D10*
%TO.C,J1*%
X127940000Y-97460000D03*
D11*
X130480000Y-97460000D03*
X133020000Y-97460000D03*
X135560000Y-97460000D03*
X138100000Y-97460000D03*
X140640000Y-97460000D03*
X143180000Y-97460000D03*
X145720000Y-97460000D03*
%TD*%
D10*
%TO.C,J3*%
X150800000Y-97460000D03*
D11*
X153340000Y-97460000D03*
X155880000Y-97460000D03*
X158420000Y-97460000D03*
X160960000Y-97460000D03*
X163500000Y-97460000D03*
%TD*%
D10*
%TO.C,J2*%
X118796000Y-49200000D03*
D11*
X121336000Y-49200000D03*
X123876000Y-49200000D03*
X126416000Y-49200000D03*
X128956000Y-49200000D03*
X131496000Y-49200000D03*
X134036000Y-49200000D03*
X136576000Y-49200000D03*
X139116000Y-49200000D03*
X141656000Y-49200000D03*
%TD*%
D10*
%TO.C,J4*%
X145720000Y-49200000D03*
D11*
X148260000Y-49200000D03*
X150800000Y-49200000D03*
X153340000Y-49200000D03*
X155880000Y-49200000D03*
X158420000Y-49200000D03*
X160960000Y-49200000D03*
X163500000Y-49200000D03*
%TD*%
D12*
%TO.C,C4*%
X126500000Y-88500000D03*
X131500000Y-88500000D03*
%TD*%
D13*
%TO.C,Bluetooth*%
X136960000Y-77000000D03*
D14*
X139500000Y-77000000D03*
X142040000Y-77000000D03*
X144580000Y-77000000D03*
%TD*%
D15*
%TO.C,Encodeur1*%
X158000000Y-54500000D03*
D16*
X158000000Y-57040000D03*
X158000000Y-59580000D03*
X158000000Y-62120000D03*
X158000000Y-64660000D03*
%TD*%
%TO.C,C1*%
X115500000Y-85500000D03*
X120500000Y-85500000D03*
%TD*%
D13*
%TO.C,potD1*%
X139810000Y-56240000D03*
D14*
X137270000Y-56240000D03*
X134730000Y-56240000D03*
X132190000Y-56240000D03*
X132190000Y-63760000D03*
X134730000Y-63760000D03*
X137270000Y-63760000D03*
X139810000Y-63760000D03*
%TD*%
D17*
%TO.C,MH1*%
X115240000Y-49200000D03*
%TD*%
D13*
%TO.C,AOP1*%
X112690000Y-65760000D03*
D14*
X115230000Y-65760000D03*
X117770000Y-65760000D03*
X120310000Y-65760000D03*
X120310000Y-58240000D03*
X117770000Y-58240000D03*
X115230000Y-58240000D03*
X112690000Y-58240000D03*
%TD*%
D18*
%TO.C,EcranOled1*%
X110000000Y-52310000D03*
D19*
X110000000Y-49770000D03*
X110000000Y-47230000D03*
X110000000Y-44690000D03*
%TD*%
D12*
%TO.C,R5*%
X124080000Y-102000000D03*
X113920000Y-102000000D03*
%TD*%
D19*
%TO.C,capteur*%
X135760000Y-102000000D03*
X128240000Y-102000000D03*
%TD*%
D16*
%TO.C,C2*%
X158500000Y-87000000D03*
X158500000Y-92000000D03*
%TD*%
D17*
%TO.C,MH2*%
X113970000Y-97460000D03*
%TD*%
%TO.C,MH3*%
X166040000Y-64440000D03*
%TD*%
%TO.C,MH4*%
X166040000Y-92380000D03*
%TD*%
D12*
%TO.C,R1*%
X106500000Y-83580000D03*
X106500000Y-73420000D03*
%TD*%
%TO.C,R3*%
X131500000Y-79580000D03*
X131500000Y-69420000D03*
%TD*%
%TO.C,R4*%
X140500000Y-93080000D03*
X140500000Y-82920000D03*
%TD*%
M02*
